<svg xmlns="http://www.w3.org/2000/svg" xmlns:xlink="http://www.w3.org/1999/xlink" width="1920" zoomAndPan="magnify" viewBox="0 0 1440 1447.9199" height="1920" preserveAspectRatio="xMidYMid meet" version="1.0"><defs><g/><clipPath id="ac18c19cd5"><path d="M 0.0390625 0 L 1439.960938 0 L 1439.960938 1439.921875 L 0.0390625 1439.921875 Z M 0.0390625 0 " clip-rule="nonzero"/></clipPath><clipPath id="78db83626e"><path d="M 391 446 L 1075.421875 446 L 1075.421875 1130.417969 L 391 1130.417969 Z M 391 446 " clip-rule="nonzero"/></clipPath></defs><g clip-path="url(#ac18c19cd5)"><path fill="#ffffff" d="M 0.0390625 0 L 1439.960938 0 L 1439.960938 1439.921875 L 0.0390625 1439.921875 Z M 0.0390625 0 " fill-opacity="1" fill-rule="nonzero"/><path fill="#b35c4b" d="M 0.0390625 0 L 1439.960938 0 L 1439.960938 1439.921875 L 0.0390625 1439.921875 Z M 0.0390625 0 " fill-opacity="1" fill-rule="nonzero"/></g><g fill="#f8f1e5" fill-opacity="1"><g transform="translate(291.524644, 319.674001)"><g><path d="M 5.3125 0 L 5.3125 -70.21875 L 34.3125 -70.21875 C 39.570312 -70.21875 44.113281 -69.191406 47.9375 -67.140625 C 51.769531 -65.097656 54.726562 -62.253906 56.8125 -58.609375 C 58.894531 -54.960938 59.9375 -50.726562 59.9375 -45.90625 C 59.9375 -41.0625 58.878906 -36.828125 56.765625 -33.203125 C 54.648438 -29.578125 51.632812 -26.769531 47.71875 -24.78125 C 43.8125 -22.800781 39.175781 -21.8125 33.8125 -21.8125 L 15.90625 -21.8125 L 15.90625 -35.171875 L 30.65625 -35.171875 C 33.207031 -35.171875 35.347656 -35.613281 37.078125 -36.5 C 38.804688 -37.394531 40.113281 -38.648438 41 -40.265625 C 41.894531 -41.878906 42.34375 -43.757812 42.34375 -45.90625 C 42.34375 -48.082031 41.894531 -49.960938 41 -51.546875 C 40.113281 -53.140625 38.800781 -54.367188 37.0625 -55.234375 C 35.320312 -56.097656 33.1875 -56.53125 30.65625 -56.53125 L 22.28125 -56.53125 L 22.28125 0 Z M 5.3125 0 "/></g></g></g><g fill="#f8f1e5" fill-opacity="1"><g transform="translate(346.036794, 319.674001)"><g><path d="M 20.5 0 L 2.265625 0 L 25.953125 -70.21875 L 48.546875 -70.21875 L 72.234375 0 L 54 0 L 37.515625 -52.53125 L 36.953125 -52.53125 Z M 18.0625 -27.640625 L 56.1875 -27.640625 L 56.1875 -14.75 L 18.0625 -14.75 Z M 18.0625 -27.640625 "/></g></g></g><g fill="#f8f1e5" fill-opacity="1"><g transform="translate(413.405725, 319.674001)"><g><path d="M 1.8125 -70.21875 L 20.78125 -70.21875 L 35.625 -40.828125 L 36.234375 -40.828125 L 51.078125 -70.21875 L 70.046875 -70.21875 L 44.359375 -23.453125 L 44.359375 0 L 27.5 0 L 27.5 -23.453125 Z M 1.8125 -70.21875 "/></g></g></g><g fill="#f8f1e5" fill-opacity="1"><g transform="translate(485.266238, 319.674001)"><g><path d="M 5.3125 -70.21875 L 26.328125 -70.21875 L 44.15625 -26.75 L 44.984375 -26.75 L 62.8125 -70.21875 L 83.828125 -70.21875 L 83.828125 0 L 67.296875 0 L 67.296875 -43.125 L 66.71875 -43.125 L 49.84375 -0.453125 L 39.296875 -0.453125 L 22.421875 -43.375 L 21.84375 -43.375 L 21.84375 0 L 5.3125 0 Z M 5.3125 -70.21875 "/></g></g></g><g fill="#f8f1e5" fill-opacity="1"><g transform="translate(574.4062, 319.674001)"><g><path d="M 5.3125 0 L 5.3125 -70.21875 L 54.265625 -70.21875 L 54.265625 -56.4375 L 22.28125 -56.4375 L 22.28125 -42.03125 L 51.765625 -42.03125 L 51.765625 -28.21875 L 22.28125 -28.21875 L 22.28125 -13.78125 L 54.265625 -13.78125 L 54.265625 0 Z M 5.3125 0 "/></g></g></g><g fill="#f8f1e5" fill-opacity="1"><g transform="translate(633.992836, 319.674001)"><g><path d="M 65.078125 -70.21875 L 65.078125 0 L 50.671875 0 L 22.734375 -40.53125 L 22.28125 -40.53125 L 22.28125 0 L 5.3125 0 L 5.3125 -70.21875 L 19.921875 -70.21875 L 47.546875 -29.765625 L 48.140625 -29.765625 L 48.140625 -70.21875 Z M 65.078125 -70.21875 "/></g></g></g><g fill="#f8f1e5" fill-opacity="1"><g transform="translate(704.379122, 319.674001)"><g><path d="M 3.015625 -56.4375 L 3.015625 -70.21875 L 62.359375 -70.21875 L 62.359375 -56.4375 L 41.078125 -56.4375 L 41.078125 0 L 24.34375 0 L 24.34375 -56.4375 Z M 3.015625 -56.4375 "/></g></g></g><g fill="#f8f1e5" fill-opacity="1"><g transform="translate(769.759856, 319.674001)"><g/></g></g><g fill="#f8f1e5" fill-opacity="1"><g transform="translate(790.536324, 319.674001)"><g><path d="M 5.3125 0 L 5.3125 -70.21875 L 53.25 -70.21875 L 53.25 -56.4375 L 22.28125 -56.4375 L 22.28125 -42.03125 L 50.1875 -42.03125 L 50.1875 -28.21875 L 22.28125 -28.21875 L 22.28125 0 Z M 5.3125 0 "/></g></g></g><g fill="#f8f1e5" fill-opacity="1"><g transform="translate(838.191553, 319.674001)"><g><path d="M 20.5 0 L 2.265625 0 L 25.953125 -70.21875 L 48.546875 -70.21875 L 72.234375 0 L 54 0 L 37.515625 -52.53125 L 36.953125 -52.53125 Z M 18.0625 -27.640625 L 56.1875 -27.640625 L 56.1875 -14.75 L 18.0625 -14.75 Z M 18.0625 -27.640625 "/></g></g></g><g fill="#f8f1e5" fill-opacity="1"><g transform="translate(912.691991, 319.674001)"><g><path d="M 22.28125 -70.21875 L 22.28125 0 L 5.3125 0 L 5.3125 -70.21875 Z M 22.28125 -70.21875 "/></g></g></g><g fill="#f8f1e5" fill-opacity="1"><g transform="translate(940.291095, 319.674001)"><g><path d="M 5.3125 0 L 5.3125 -70.21875 L 22.28125 -70.21875 L 22.28125 -13.78125 L 51.5 -13.78125 L 51.5 0 Z M 5.3125 0 "/></g></g></g><g fill="#f8f1e5" fill-opacity="1"><g transform="translate(995.24931, 319.674001)"><g><path d="M 5.3125 0 L 5.3125 -70.21875 L 54.265625 -70.21875 L 54.265625 -56.4375 L 22.28125 -56.4375 L 22.28125 -42.03125 L 51.765625 -42.03125 L 51.765625 -28.21875 L 22.28125 -28.21875 L 22.28125 -13.78125 L 54.265625 -13.78125 L 54.265625 0 Z M 5.3125 0 "/></g></g></g><g fill="#f8f1e5" fill-opacity="1"><g transform="translate(1054.835946, 319.674001)"><g><path d="M 31.265625 0 L 5.3125 0 L 5.3125 -70.21875 L 31.234375 -70.21875 C 38.390625 -70.21875 44.554688 -68.816406 49.734375 -66.015625 C 54.910156 -63.210938 58.90625 -59.1875 61.71875 -53.9375 C 64.53125 -48.695312 65.9375 -42.429688 65.9375 -35.140625 C 65.9375 -27.828125 64.535156 -21.539062 61.734375 -16.28125 C 58.929688 -11.03125 54.9375 -7.003906 49.75 -4.203125 C 44.5625 -1.398438 38.398438 0 31.265625 0 Z M 22.28125 -14.46875 L 30.609375 -14.46875 C 34.546875 -14.46875 37.878906 -15.132812 40.609375 -16.46875 C 43.335938 -17.8125 45.40625 -19.992188 46.8125 -23.015625 C 48.21875 -26.046875 48.921875 -30.085938 48.921875 -35.140625 C 48.921875 -40.191406 48.210938 -44.21875 46.796875 -47.21875 C 45.378906 -50.226562 43.289062 -52.398438 40.53125 -53.734375 C 37.78125 -55.078125 34.394531 -55.75 30.375 -55.75 L 22.28125 -55.75 Z M 22.28125 -14.46875 "/></g></g></g><g fill="#f8f1e5" fill-opacity="1"><g transform="translate(1125.32504, 319.674001)"><g><path d="M 25.03125 -70.21875 L 23.453125 -21.5 L 9.359375 -21.5 L 7.78125 -70.21875 Z M 16.390625 1 C 13.941406 1 11.84375 0.128906 10.09375 -1.609375 C 8.34375 -3.347656 7.46875 -5.453125 7.46875 -7.921875 C 7.46875 -10.335938 8.34375 -12.410156 10.09375 -14.140625 C 11.84375 -15.867188 13.941406 -16.734375 16.390625 -16.734375 C 18.742188 -16.734375 20.816406 -15.867188 22.609375 -14.140625 C 24.398438 -12.410156 25.296875 -10.335938 25.296875 -7.921875 C 25.296875 -6.273438 24.878906 -4.773438 24.046875 -3.421875 C 23.210938 -2.078125 22.125 -1.003906 20.78125 -0.203125 C 19.445312 0.597656 17.984375 1 16.390625 1 Z M 16.390625 1 "/></g></g></g><path fill="#b35c4b" d="M 1024.246094 783.839844 C 1024.246094 788.671875 1024.128906 793.5 1023.890625 798.324219 C 1023.652344 803.152344 1023.296875 807.96875 1022.824219 812.777344 C 1022.351562 817.585938 1021.761719 822.378906 1021.050781 827.15625 C 1020.34375 831.9375 1019.515625 836.695312 1018.574219 841.433594 C 1017.632812 846.171875 1016.574219 850.886719 1015.398438 855.570312 C 1014.226562 860.257812 1012.9375 864.914062 1011.535156 869.535156 C 1010.132812 874.160156 1008.617188 878.746094 1006.988281 883.296875 C 1005.363281 887.84375 1003.625 892.351562 1001.773438 896.816406 C 999.925781 901.277344 997.96875 905.695312 995.902344 910.0625 C 993.835938 914.429688 991.664062 918.742188 989.386719 923.003906 C 987.109375 927.265625 984.730469 931.46875 982.246094 935.613281 C 979.761719 939.753906 977.179688 943.835938 974.492188 947.851562 C 971.808594 951.871094 969.027344 955.820312 966.148438 959.699219 C 963.273438 963.582031 960.300781 967.386719 957.234375 971.125 C 954.171875 974.859375 951.015625 978.515625 947.769531 982.09375 C 944.527344 985.675781 941.195312 989.171875 937.78125 992.589844 C 934.363281 996.003906 930.867188 999.335938 927.285156 1002.582031 C 923.707031 1005.824219 920.046875 1008.980469 916.3125 1012.046875 C 912.578125 1015.109375 908.769531 1018.082031 904.890625 1020.960938 C 901.011719 1023.839844 897.0625 1026.617188 893.042969 1029.304688 C 889.027344 1031.988281 884.945312 1034.570312 880.800781 1037.054688 C 876.65625 1039.539062 872.457031 1041.917969 868.195312 1044.199219 C 863.933594 1046.476562 859.621094 1048.648438 855.25 1050.710938 C 850.882812 1052.777344 846.46875 1054.734375 842.003906 1056.585938 C 837.542969 1058.433594 833.035156 1060.171875 828.484375 1061.800781 C 823.9375 1063.425781 819.351562 1064.941406 814.726562 1066.34375 C 810.105469 1067.746094 805.449219 1069.035156 800.761719 1070.207031 C 796.074219 1071.382812 791.363281 1072.441406 786.625 1073.382812 C 781.886719 1074.324219 777.128906 1075.152344 772.347656 1075.859375 C 767.570312 1076.570312 762.773438 1077.160156 757.96875 1077.632812 C 753.160156 1078.109375 748.34375 1078.464844 743.515625 1078.699219 C 738.691406 1078.9375 733.863281 1079.054688 729.03125 1079.054688 C 724.199219 1079.054688 719.371094 1078.9375 714.546875 1078.699219 C 709.71875 1078.464844 704.902344 1078.109375 700.09375 1077.632812 C 695.285156 1077.160156 690.492188 1076.570312 685.714844 1075.859375 C 680.933594 1075.152344 676.175781 1074.324219 671.4375 1073.382812 C 666.699219 1072.441406 661.984375 1071.382812 657.300781 1070.207031 C 652.613281 1069.035156 647.957031 1067.746094 643.335938 1066.34375 C 638.710938 1064.941406 634.125 1063.425781 629.574219 1061.800781 C 625.027344 1060.171875 620.519531 1058.433594 616.058594 1056.585938 C 611.59375 1054.734375 607.175781 1052.777344 602.808594 1050.710938 C 598.441406 1048.648438 594.128906 1046.476562 589.867188 1044.199219 C 585.605469 1041.917969 581.402344 1039.539062 577.261719 1037.054688 C 573.117188 1034.570312 569.035156 1031.988281 565.019531 1029.304688 C 561 1026.617188 557.050781 1023.839844 553.171875 1020.960938 C 549.289062 1018.082031 545.484375 1015.109375 541.75 1012.046875 C 538.011719 1008.980469 534.355469 1005.824219 530.777344 1002.582031 C 527.195312 999.335938 523.699219 996.003906 520.28125 992.589844 C 516.867188 989.171875 513.535156 985.675781 510.289062 982.09375 C 507.046875 978.515625 503.890625 974.859375 500.828125 971.125 C 497.761719 967.386719 494.789062 963.582031 491.910156 959.699219 C 489.035156 955.820312 486.253906 951.871094 483.566406 947.851562 C 480.882812 943.835938 478.300781 939.753906 475.816406 935.613281 C 473.332031 931.46875 470.953125 927.265625 468.675781 923.003906 C 466.398438 918.742188 464.226562 914.429688 462.160156 910.0625 C 460.09375 905.695312 458.136719 901.277344 456.289062 896.816406 C 454.4375 892.351562 452.699219 887.84375 451.074219 883.296875 C 449.445312 878.746094 447.929688 874.160156 446.527344 869.535156 C 445.125 864.914062 443.835938 860.257812 442.664062 855.570312 C 441.488281 850.886719 440.429688 846.171875 439.488281 841.433594 C 438.546875 836.695312 437.71875 831.9375 437.011719 827.15625 C 436.300781 822.378906 435.710938 817.585938 435.238281 812.777344 C 434.761719 807.96875 434.40625 803.152344 434.171875 798.324219 C 433.933594 793.5 433.816406 788.671875 433.816406 783.839844 C 433.816406 779.007812 433.933594 774.179688 434.171875 769.355469 C 434.40625 764.53125 434.761719 759.710938 435.238281 754.90625 C 435.710938 750.097656 436.300781 745.300781 437.011719 740.523438 C 437.71875 735.746094 438.546875 730.984375 439.488281 726.246094 C 440.429688 721.507812 441.488281 716.796875 442.664062 712.109375 C 443.835938 707.421875 445.125 702.765625 446.527344 698.144531 C 447.929688 693.519531 449.445312 688.933594 451.074219 684.386719 C 452.699219 679.835938 454.4375 675.328125 456.289062 670.867188 C 458.136719 666.402344 460.09375 661.988281 462.160156 657.621094 C 464.226562 653.253906 466.398438 648.9375 468.675781 644.675781 C 470.953125 640.414062 473.332031 636.214844 475.816406 632.070312 C 478.300781 627.925781 480.882812 623.84375 483.566406 619.828125 C 486.253906 615.808594 489.035156 611.863281 491.910156 607.980469 C 494.789062 604.101562 497.761719 600.292969 500.828125 596.558594 C 503.890625 592.824219 507.046875 589.164062 510.289062 585.585938 C 513.535156 582.007812 516.867188 578.507812 520.28125 575.089844 C 523.699219 571.675781 527.195312 568.34375 530.777344 565.101562 C 534.355469 561.855469 538.011719 558.699219 541.75 555.636719 C 545.484375 552.570312 549.289062 549.597656 553.171875 546.722656 C 557.050781 543.84375 561 541.0625 565.019531 538.378906 C 569.035156 535.695312 573.117188 533.109375 577.261719 530.625 C 581.402344 528.140625 585.605469 525.761719 589.867188 523.484375 C 594.128906 521.207031 598.441406 519.035156 602.808594 516.96875 C 607.175781 514.902344 611.59375 512.945312 616.058594 511.097656 C 620.519531 509.246094 625.027344 507.507812 629.574219 505.882812 C 634.125 504.253906 638.710938 502.738281 643.335938 501.335938 C 647.957031 499.933594 652.613281 498.644531 657.300781 497.472656 C 661.984375 496.296875 666.699219 495.238281 671.4375 494.296875 C 676.175781 493.355469 680.933594 492.527344 685.714844 491.820312 C 690.492188 491.109375 695.285156 490.519531 700.09375 490.046875 C 704.902344 489.574219 709.71875 489.21875 714.546875 488.980469 C 719.371094 488.742188 724.199219 488.625 729.03125 488.625 C 733.863281 488.625 738.691406 488.742188 743.515625 488.980469 C 748.34375 489.21875 753.160156 489.574219 757.96875 490.046875 C 762.773438 490.519531 767.570312 491.109375 772.347656 491.820312 C 777.128906 492.527344 781.886719 493.355469 786.625 494.296875 C 791.363281 495.238281 796.074219 496.296875 800.761719 497.472656 C 805.449219 498.644531 810.105469 499.933594 814.726562 501.335938 C 819.351562 502.738281 823.9375 504.253906 828.484375 505.882812 C 833.035156 507.507812 837.542969 509.246094 842.003906 511.097656 C 846.46875 512.945312 850.882812 514.902344 855.25 516.96875 C 859.621094 519.035156 863.933594 521.207031 868.195312 523.484375 C 872.457031 525.761719 876.65625 528.140625 880.800781 530.625 C 884.945312 533.109375 889.027344 535.695312 893.042969 538.378906 C 897.0625 541.0625 901.011719 543.84375 904.890625 546.722656 C 908.769531 549.597656 912.578125 552.570312 916.3125 555.636719 C 920.046875 558.699219 923.707031 561.855469 927.285156 565.101562 C 930.867188 568.34375 934.363281 571.675781 937.78125 575.089844 C 941.195312 578.507812 944.527344 582.007812 947.769531 585.585938 C 951.015625 589.164062 954.171875 592.824219 957.234375 596.558594 C 960.300781 600.292969 963.273438 604.101562 966.148438 607.980469 C 969.027344 611.863281 971.808594 615.808594 974.492188 619.828125 C 977.179688 623.84375 979.761719 627.925781 982.246094 632.070312 C 984.730469 636.214844 987.109375 640.414062 989.386719 644.675781 C 991.664062 648.9375 993.835938 653.253906 995.902344 657.621094 C 997.96875 661.988281 999.925781 666.402344 1001.773438 670.867188 C 1003.625 675.328125 1005.363281 679.835938 1006.988281 684.386719 C 1008.617188 688.933594 1010.132812 693.519531 1011.535156 698.144531 C 1012.9375 702.765625 1014.226562 707.421875 1015.398438 712.109375 C 1016.574219 716.796875 1017.632812 721.507812 1018.574219 726.246094 C 1019.515625 730.984375 1020.34375 735.746094 1021.050781 740.523438 C 1021.761719 745.300781 1022.351562 750.097656 1022.824219 754.90625 C 1023.296875 759.710938 1023.652344 764.53125 1023.890625 769.355469 C 1024.128906 774.179688 1024.246094 779.007812 1024.246094 783.839844 Z M 1024.246094 783.839844 " fill-opacity="1" fill-rule="nonzero"/><path fill="#8f4a3c" d="M 994.804688 784.621094 C 990.394531 899.140625 900.402344 1012.398438 792.191406 1036.851562 C 774.414062 1040.867188 779.796875 1046.523438 760.800781 1046.523438 C 757.972656 1046.523438 752.722656 1046.617188 749.949219 1046.523438 L 599.625 913.246094 L 864.65625 663.742188 Z M 994.804688 784.621094 " fill-opacity="1" fill-rule="nonzero"/><path fill="#f8f1e5" d="M 864.015625 848.285156 L 800.855469 788.300781 L 864.015625 728.304688 C 865.109375 727.253906 866.148438 726.152344 867.132812 725 C 868.117188 723.84375 869.042969 722.648438 869.910156 721.402344 C 870.777344 720.160156 871.582031 718.875 872.324219 717.550781 C 873.066406 716.230469 873.742188 714.875 874.351562 713.484375 C 874.960938 712.097656 875.5 710.679688 875.96875 709.238281 C 876.441406 707.796875 876.839844 706.335938 877.167969 704.855469 C 877.496094 703.375 877.75 701.882812 877.933594 700.375 C 878.113281 698.871094 878.222656 697.359375 878.253906 695.84375 C 878.289062 694.328125 878.25 692.8125 878.132812 691.300781 C 878.019531 689.789062 877.832031 688.285156 877.570312 686.792969 C 877.308594 685.296875 876.976562 683.820312 876.570312 682.359375 C 876.164062 680.898438 875.6875 679.460938 875.140625 678.046875 C 874.59375 676.632812 873.980469 675.246094 873.296875 673.894531 C 872.613281 672.539062 871.867188 671.21875 871.054688 669.9375 C 870.246094 668.65625 869.375 667.417969 868.441406 666.222656 C 867.507812 665.027344 866.519531 663.878906 865.476562 662.78125 C 864.429688 661.679688 863.335938 660.636719 862.1875 659.644531 C 861.039062 658.652344 859.847656 657.71875 858.609375 656.84375 C 857.371094 655.964844 856.09375 655.152344 854.773438 654.402344 C 853.457031 653.652344 852.105469 652.96875 850.71875 652.351562 C 849.335938 651.734375 847.925781 651.183594 846.484375 650.703125 C 845.046875 650.222656 843.589844 649.816406 842.109375 649.480469 C 840.632812 649.140625 839.140625 648.878906 837.636719 648.6875 C 836.128906 648.496094 834.621094 648.378906 833.105469 648.335938 C 831.589844 648.289062 830.074219 648.320312 828.5625 648.425781 C 827.046875 648.53125 825.542969 648.710938 824.046875 648.960938 C 822.554688 649.214844 821.074219 649.539062 819.609375 649.933594 C 818.144531 650.332031 816.707031 650.796875 815.289062 651.335938 C 813.871094 651.875 812.480469 652.480469 811.121094 653.152344 C 809.761719 653.828125 808.441406 654.566406 807.152344 655.367188 C 805.867188 656.171875 804.625 657.035156 803.421875 657.960938 C 802.21875 658.882812 801.066406 659.867188 799.960938 660.902344 L 733.394531 724.160156 L 666.824219 660.902344 C 665.714844 659.878906 664.558594 658.910156 663.355469 657.996094 C 662.152344 657.082031 660.910156 656.230469 659.625 655.441406 C 658.335938 654.648438 657.015625 653.921875 655.660156 653.257812 C 654.304688 652.597656 652.917969 652 651.503906 651.472656 C 650.089844 650.945312 648.652344 650.488281 647.195312 650.101562 C 645.734375 649.710938 644.261719 649.398438 642.769531 649.152344 C 641.28125 648.90625 639.78125 648.738281 638.277344 648.640625 C 636.769531 648.539062 635.261719 648.515625 633.753906 648.5625 C 632.242188 648.613281 630.742188 648.734375 629.242188 648.929688 C 627.746094 649.125 626.261719 649.390625 624.792969 649.730469 C 623.320312 650.070312 621.871094 650.480469 620.4375 650.964844 C 619.007812 651.445312 617.601562 651.992188 616.226562 652.609375 C 614.847656 653.230469 613.503906 653.910156 612.191406 654.660156 C 610.882812 655.410156 609.609375 656.21875 608.378906 657.09375 C 607.144531 657.964844 605.960938 658.894531 604.816406 659.882812 C 603.675781 660.871094 602.585938 661.914062 601.546875 663.007812 C 600.507812 664.101562 599.523438 665.246094 598.59375 666.433594 C 597.664062 667.625 596.796875 668.859375 595.988281 670.132812 C 595.179688 671.40625 594.433594 672.71875 593.753906 674.066406 C 593.074219 675.414062 592.457031 676.792969 591.914062 678.199219 C 591.367188 679.605469 590.886719 681.035156 590.480469 682.488281 C 590.074219 683.945312 589.738281 685.414062 589.472656 686.898438 C 589.210938 688.386719 589.019531 689.882812 588.898438 691.386719 C 588.78125 692.890625 588.738281 694.398438 588.765625 695.910156 C 588.792969 697.417969 588.894531 698.921875 589.070312 700.421875 C 589.246094 701.921875 589.492188 703.410156 589.8125 704.886719 C 590.132812 706.359375 590.523438 707.816406 590.984375 709.253906 C 591.445312 710.691406 591.976562 712.101562 592.578125 713.488281 C 593.175781 714.875 593.839844 716.226562 594.570312 717.546875 C 595.304688 718.871094 596.097656 720.152344 596.953125 721.394531 C 597.808594 722.640625 598.722656 723.839844 599.695312 724.992188 C 600.667969 726.148438 601.695312 727.25 602.773438 728.304688 L 665.9375 788.300781 L 602.773438 848.285156 C 601.648438 849.328125 600.574219 850.421875 599.554688 851.570312 C 598.539062 852.71875 597.578125 853.917969 596.675781 855.160156 C 595.777344 856.40625 594.941406 857.691406 594.167969 859.019531 C 593.394531 860.347656 592.691406 861.707031 592.050781 863.105469 C 591.414062 864.503906 590.847656 865.925781 590.351562 867.378906 C 589.851562 868.832031 589.429688 870.308594 589.078125 871.804688 C 588.730469 873.296875 588.453125 874.808594 588.253906 876.332031 C 588.050781 877.851562 587.925781 879.382812 587.875 880.917969 C 587.828125 882.453125 587.851562 883.984375 587.957031 885.515625 C 588.058594 887.050781 588.234375 888.574219 588.488281 890.089844 C 588.742188 891.601562 589.070312 893.101562 589.472656 894.582031 C 589.875 896.066406 590.347656 897.523438 590.894531 898.960938 C 591.441406 900.394531 592.058594 901.800781 592.742188 903.175781 C 593.429688 904.546875 594.179688 905.886719 595 907.183594 C 595.816406 908.484375 596.699219 909.742188 597.640625 910.953125 C 598.582031 912.164062 599.582031 913.328125 600.640625 914.441406 C 601.699219 915.554688 602.808594 916.613281 603.972656 917.617188 C 605.136719 918.621094 606.34375 919.5625 607.601562 920.445312 C 608.855469 921.332031 610.152344 922.148438 611.492188 922.902344 C 612.828125 923.660156 614.199219 924.347656 615.605469 924.964844 C 617.011719 925.585938 618.445312 926.132812 619.902344 926.609375 C 621.363281 927.085938 622.84375 927.488281 624.34375 927.820312 C 625.84375 928.152344 627.355469 928.40625 628.878906 928.585938 C 630.40625 928.765625 631.9375 928.871094 633.472656 928.902344 C 635.007812 928.929688 636.539062 928.882812 638.070312 928.761719 C 639.601562 928.636719 641.121094 928.4375 642.632812 928.164062 C 644.144531 927.890625 645.640625 927.542969 647.117188 927.121094 C 648.59375 926.699219 650.046875 926.207031 651.472656 925.640625 C 652.902344 925.074219 654.296875 924.4375 655.660156 923.734375 C 657.027344 923.03125 658.351562 922.261719 659.640625 921.425781 C 660.929688 920.589844 662.175781 919.691406 663.375 918.734375 C 664.574219 917.773438 665.722656 916.757812 666.824219 915.6875 L 733.394531 852.429688 L 799.960938 915.6875 C 801.066406 916.722656 802.21875 917.707031 803.421875 918.628906 C 804.625 919.554688 805.867188 920.417969 807.152344 921.222656 C 808.441406 922.023438 809.761719 922.761719 811.121094 923.4375 C 812.480469 924.109375 813.867188 924.714844 815.285156 925.253906 C 816.703125 925.789062 818.144531 926.257812 819.609375 926.652344 C 821.074219 927.050781 822.554688 927.375 824.046875 927.628906 C 825.542969 927.878906 827.046875 928.058594 828.5625 928.160156 C 830.074219 928.265625 831.589844 928.296875 833.105469 928.253906 C 834.621094 928.210938 836.128906 928.09375 837.632812 927.902344 C 839.136719 927.710938 840.628906 927.445312 842.109375 927.109375 C 843.585938 926.773438 845.046875 926.363281 846.484375 925.882812 C 847.921875 925.402344 849.335938 924.855469 850.71875 924.238281 C 852.105469 923.617188 853.457031 922.933594 854.773438 922.183594 C 856.089844 921.433594 857.371094 920.621094 858.609375 919.746094 C 859.847656 918.871094 861.039062 917.9375 862.1875 916.945312 C 863.332031 915.953125 864.429688 914.90625 865.472656 913.808594 C 866.519531 912.707031 867.507812 911.5625 868.4375 910.363281 C 869.371094 909.167969 870.242188 907.929688 871.054688 906.648438 C 871.867188 905.367188 872.613281 904.050781 873.292969 902.695312 C 873.976562 901.339844 874.589844 899.957031 875.136719 898.542969 C 875.683594 897.128906 876.160156 895.691406 876.566406 894.230469 C 876.972656 892.769531 877.308594 891.289062 877.570312 889.796875 C 877.828125 888.304688 878.019531 886.800781 878.132812 885.289062 C 878.246094 883.777344 878.289062 882.261719 878.253906 880.746094 C 878.21875 879.230469 878.113281 877.71875 877.929688 876.210938 C 877.75 874.707031 877.496094 873.214844 877.167969 871.734375 C 876.839844 870.253906 876.441406 868.792969 875.96875 867.351562 C 875.5 865.910156 874.957031 864.492188 874.351562 863.105469 C 873.742188 861.714844 873.066406 860.359375 872.324219 859.035156 C 871.582031 857.714844 870.777344 856.429688 869.910156 855.1875 C 869.042969 853.941406 868.117188 852.746094 867.132812 851.589844 C 866.148438 850.4375 865.109375 849.335938 864.015625 848.285156 Z M 864.015625 848.285156 " fill-opacity="1" fill-rule="nonzero"/><g clip-path="url(#78db83626e)"><path fill="#f8f1e5" d="M 733.394531 1130.273438 C 729.199219 1130.273438 725.003906 1130.195312 720.808594 1130.042969 C 716.613281 1129.886719 712.425781 1129.65625 708.238281 1129.347656 C 704.054688 1129.039062 699.875 1128.652344 695.703125 1128.1875 C 691.53125 1127.726562 687.371094 1127.1875 683.21875 1126.570312 C 679.066406 1125.957031 674.925781 1125.261719 670.800781 1124.496094 C 666.675781 1123.726562 662.5625 1122.882812 658.46875 1121.964844 C 654.375 1121.042969 650.296875 1120.050781 646.238281 1118.980469 C 642.179688 1117.910156 638.140625 1116.765625 634.125 1115.546875 C 630.109375 1114.328125 626.117188 1113.039062 622.148438 1111.671875 C 618.179688 1110.308594 614.238281 1108.867188 610.320312 1107.359375 C 606.40625 1105.847656 602.519531 1104.265625 598.660156 1102.613281 C 594.804688 1100.957031 590.976562 1099.234375 587.183594 1097.441406 C 583.390625 1095.644531 579.628906 1093.78125 575.902344 1091.847656 C 572.179688 1089.914062 568.488281 1087.914062 564.835938 1085.847656 C 561.1875 1083.777344 557.574219 1081.640625 554 1079.441406 C 550.425781 1077.238281 546.894531 1074.972656 543.40625 1072.640625 C 539.914062 1070.308594 536.46875 1067.914062 533.070312 1065.453125 C 529.667969 1062.996094 526.3125 1060.476562 523.003906 1057.894531 C 519.695312 1055.3125 516.433594 1052.667969 513.222656 1049.964844 C 510.011719 1047.265625 506.851562 1044.503906 503.742188 1041.683594 C 500.628906 1038.867188 497.574219 1035.992188 494.570312 1033.058594 C 491.566406 1030.128906 488.617188 1027.144531 485.722656 1024.105469 C 482.828125 1021.0625 479.992188 1017.972656 477.210938 1014.828125 C 474.429688 1011.683594 471.710938 1008.488281 469.046875 1005.246094 C 466.382812 1002 463.78125 998.707031 461.242188 995.367188 C 458.699219 992.027344 456.21875 988.640625 453.804688 985.210938 C 451.386719 981.777344 449.035156 978.304688 446.746094 974.785156 C 444.457031 971.269531 442.234375 967.707031 440.074219 964.109375 C 437.917969 960.507812 435.828125 956.871094 433.804688 953.195312 C 431.777344 949.515625 429.824219 945.804688 427.9375 942.054688 C 426.050781 938.304688 424.230469 934.523438 422.484375 930.707031 C 420.738281 926.890625 419.058594 923.042969 417.453125 919.167969 C 415.847656 915.289062 414.3125 911.382812 412.851562 907.449219 C 411.386719 903.515625 410 899.554688 408.683594 895.570312 C 407.367188 891.585938 406.121094 887.578125 404.953125 883.546875 C 403.785156 879.515625 402.691406 875.464844 401.671875 871.390625 C 400.652344 867.320312 399.707031 863.230469 398.835938 859.125 C 397.96875 855.019531 397.175781 850.898438 396.457031 846.765625 C 395.738281 842.628906 395.097656 838.480469 394.535156 834.324219 C 393.96875 830.164062 393.480469 825.996094 393.070312 821.820312 C 392.65625 817.640625 392.324219 813.457031 392.066406 809.269531 C 391.808594 805.082031 391.628906 800.886719 391.523438 796.691406 C 391.421875 792.496094 391.398438 788.300781 391.449219 784.101562 C 391.5 779.90625 391.628906 775.710938 391.835938 771.519531 C 392.039062 767.328125 392.324219 763.140625 392.683594 758.960938 C 393.042969 754.777344 393.480469 750.605469 393.992188 746.4375 C 394.507812 742.273438 395.097656 738.117188 395.765625 733.972656 C 396.429688 729.832031 397.175781 725.699219 397.992188 721.582031 C 398.8125 717.46875 399.707031 713.367188 400.675781 709.285156 C 401.644531 705.199219 402.691406 701.136719 403.808594 697.089844 C 404.929688 693.046875 406.121094 689.023438 407.390625 685.019531 C 408.65625 681.019531 410 677.042969 411.414062 673.09375 C 412.828125 669.140625 414.3125 665.214844 415.871094 661.320312 C 417.429688 657.421875 419.058594 653.554688 420.761719 649.71875 C 422.460938 645.878906 424.230469 642.078125 426.074219 638.304688 C 427.914062 634.53125 429.824219 630.796875 431.800781 627.09375 C 433.78125 623.394531 435.828125 619.730469 437.941406 616.101562 C 440.054688 612.476562 442.234375 608.890625 444.476562 605.34375 C 446.722656 601.796875 449.035156 598.296875 451.40625 594.835938 C 453.78125 591.375 456.21875 587.957031 458.71875 584.585938 C 461.21875 581.214844 463.78125 577.890625 466.40625 574.613281 C 469.027344 571.335938 471.707031 568.109375 474.449219 564.933594 C 477.191406 561.753906 479.992188 558.628906 482.847656 555.550781 C 485.703125 552.476562 488.617188 549.457031 491.582031 546.488281 C 494.550781 543.519531 497.574219 540.609375 500.648438 537.75 C 503.722656 534.894531 506.851562 532.09375 510.027344 529.355469 C 513.207031 526.613281 516.433594 523.929688 519.710938 521.308594 C 522.988281 518.6875 526.3125 516.125 529.683594 513.625 C 533.054688 511.125 536.46875 508.6875 539.929688 506.3125 C 543.390625 503.9375 546.894531 501.628906 550.441406 499.382812 C 553.988281 497.136719 557.574219 494.957031 561.199219 492.84375 C 564.824219 490.730469 568.488281 488.683594 572.191406 486.707031 C 575.890625 484.726562 579.628906 482.816406 583.402344 480.976562 C 587.171875 479.136719 590.976562 477.363281 594.8125 475.664062 C 598.652344 473.964844 602.519531 472.332031 606.414062 470.773438 C 610.3125 469.214844 614.238281 467.730469 618.1875 466.316406 C 622.140625 464.902344 626.117188 463.5625 630.117188 462.292969 C 634.117188 461.027344 638.140625 459.832031 642.1875 458.714844 C 646.230469 457.59375 650.296875 456.550781 654.378906 455.578125 C 658.464844 454.609375 662.5625 453.714844 666.679688 452.898438 C 670.796875 452.078125 674.925781 451.335938 679.070312 450.667969 C 683.214844 450.003906 687.367188 449.410156 691.535156 448.898438 C 695.699219 448.382812 699.875 447.945312 704.054688 447.585938 C 708.238281 447.226562 712.421875 446.945312 716.617188 446.738281 C 720.808594 446.53125 725.003906 446.402344 729.199219 446.351562 C 733.394531 446.300781 737.59375 446.324219 741.789062 446.429688 C 745.984375 446.53125 750.175781 446.710938 754.367188 446.96875 C 758.554688 447.226562 762.738281 447.5625 766.914062 447.972656 C 771.09375 448.382812 775.257812 448.871094 779.417969 449.4375 C 783.578125 450.003906 787.726562 450.644531 791.859375 451.359375 C 795.996094 452.078125 800.117188 452.871094 804.222656 453.742188 C 808.328125 454.609375 812.417969 455.554688 816.488281 456.574219 C 820.558594 457.59375 824.609375 458.6875 828.640625 459.859375 C 832.671875 461.027344 836.679688 462.269531 840.667969 463.585938 C 844.652344 464.902344 848.613281 466.292969 852.546875 467.753906 C 856.480469 469.21875 860.386719 470.75 864.261719 472.355469 C 868.140625 473.964844 871.988281 475.640625 875.804688 477.386719 C 879.621094 479.136719 883.402344 480.953125 887.152344 482.839844 C 890.898438 484.726562 894.613281 486.683594 898.289062 488.707031 C 901.964844 490.730469 905.605469 492.820312 909.203125 494.980469 C 912.804688 497.136719 916.363281 499.359375 919.882812 501.648438 C 923.398438 503.9375 926.875 506.289062 930.308594 508.707031 C 933.738281 511.125 937.125 513.601562 940.464844 516.144531 C 943.804688 518.6875 947.097656 521.289062 950.339844 523.949219 C 953.585938 526.613281 956.78125 529.335938 959.925781 532.113281 C 963.070312 534.894531 966.160156 537.730469 969.199219 540.625 C 972.238281 543.519531 975.226562 546.46875 978.15625 549.472656 C 981.085938 552.476562 983.960938 555.535156 986.78125 558.644531 C 989.601562 561.753906 992.359375 564.914062 995.0625 568.125 C 997.765625 571.335938 1000.40625 574.597656 1002.988281 577.90625 C 1005.570312 581.214844 1008.09375 584.570312 1010.550781 587.972656 C 1013.007812 591.375 1015.40625 594.820312 1017.734375 598.308594 C 1020.066406 601.800781 1022.335938 605.332031 1024.535156 608.902344 C 1026.738281 612.476562 1028.875 616.089844 1030.941406 619.742188 C 1033.011719 623.394531 1035.011719 627.082031 1036.945312 630.808594 C 1038.878906 634.53125 1040.742188 638.292969 1042.535156 642.085938 C 1044.332031 645.882812 1046.054688 649.707031 1047.707031 653.566406 C 1049.363281 657.421875 1050.945312 661.308594 1052.453125 665.226562 C 1053.964844 669.140625 1055.402344 673.082031 1056.769531 677.050781 C 1058.132812 681.019531 1059.425781 685.011719 1060.644531 689.03125 C 1061.863281 693.046875 1063.007812 697.082031 1064.074219 701.140625 C 1065.144531 705.199219 1066.140625 709.277344 1067.058594 713.371094 C 1067.980469 717.46875 1068.824219 721.578125 1069.589844 725.703125 C 1070.359375 729.832031 1071.050781 733.96875 1071.667969 738.121094 C 1072.285156 742.273438 1072.824219 746.433594 1073.285156 750.605469 C 1073.746094 754.777344 1074.132812 758.957031 1074.441406 763.140625 C 1074.75 767.328125 1074.984375 771.519531 1075.136719 775.710938 C 1075.292969 779.90625 1075.367188 784.101562 1075.371094 788.300781 C 1075.371094 789.042969 1075.371094 789.789062 1075.371094 790.535156 C 1075.339844 796.109375 1075.171875 801.679688 1074.867188 807.246094 C 1074.5625 812.8125 1074.125 818.367188 1073.546875 823.914062 C 1072.972656 829.457031 1072.261719 834.988281 1071.414062 840.496094 C 1070.570312 846.007812 1069.589844 851.492188 1068.472656 856.957031 C 1067.359375 862.417969 1066.113281 867.851562 1064.730469 873.25 C 1063.351562 878.652344 1061.835938 884.015625 1060.195312 889.34375 C 1058.550781 894.671875 1056.777344 899.957031 1054.875 905.195312 C 1052.972656 910.4375 1050.945312 915.625 1048.789062 920.769531 C 1046.632812 925.910156 1044.351562 930.996094 1041.949219 936.023438 C 1039.542969 941.054688 1037.015625 946.019531 1034.367188 950.925781 C 1031.71875 955.832031 1028.953125 960.671875 1026.066406 965.441406 C 1023.183594 970.210938 1020.183594 974.90625 1017.066406 979.53125 C 1013.953125 984.15625 1010.726562 988.699219 1007.386719 993.164062 C 1004.050781 997.628906 1000.605469 1002.011719 997.054688 1006.308594 C 993.5 1010.605469 989.847656 1014.8125 986.089844 1018.929688 C 982.332031 1023.046875 978.472656 1027.070312 974.519531 1031 C 970.5625 1034.929688 966.515625 1038.761719 962.371094 1042.492188 C 958.230469 1046.222656 954 1049.851562 949.679688 1053.375 C 945.359375 1056.898438 940.957031 1060.3125 936.46875 1063.621094 C 931.980469 1066.929688 927.414062 1070.125 922.773438 1073.210938 C 918.128906 1076.296875 913.410156 1079.265625 908.621094 1082.117188 C 903.832031 1084.972656 898.976562 1087.707031 894.054688 1090.324219 C 889.132812 1092.9375 884.148438 1095.433594 879.101562 1097.804688 C 874.054688 1100.175781 868.957031 1102.425781 863.800781 1104.546875 C 858.644531 1106.667969 853.441406 1108.664062 848.1875 1110.53125 C 842.9375 1112.398438 837.640625 1114.136719 832.304688 1115.746094 C 826.964844 1117.355469 821.589844 1118.832031 816.179688 1120.175781 C 810.769531 1121.523438 805.332031 1122.734375 799.863281 1123.8125 C 794.390625 1124.890625 788.898438 1125.835938 783.382812 1126.648438 C 777.867188 1127.457031 772.335938 1128.132812 766.785156 1128.671875 C 761.238281 1129.210938 755.679688 1129.613281 750.109375 1129.878906 C 744.542969 1130.148438 738.96875 1130.277344 733.394531 1130.273438 Z M 733.394531 539.304688 C 596.101562 539.304688 484.402344 651.003906 484.402344 788.300781 C 484.402344 925.59375 596.101562 1037.285156 733.394531 1037.285156 C 738.007812 1037.292969 742.617188 1037.171875 747.222656 1036.921875 C 751.832031 1036.671875 756.425781 1036.292969 761.011719 1035.789062 C 765.597656 1035.28125 770.164062 1034.648438 774.714844 1033.886719 C 779.261719 1033.125 783.789062 1032.238281 788.289062 1031.226562 C 792.789062 1030.214844 797.257812 1029.074219 801.695312 1027.8125 C 806.132812 1026.550781 810.53125 1025.167969 814.890625 1023.660156 C 819.25 1022.152344 823.5625 1020.523438 827.832031 1018.777344 C 832.101562 1017.027344 836.320312 1015.164062 840.484375 1013.179688 C 844.648438 1011.199219 848.753906 1009.101562 852.804688 1006.886719 C 856.851562 1004.675781 860.835938 1002.355469 864.753906 999.917969 C 868.671875 997.484375 872.519531 994.945312 876.296875 992.296875 C 880.074219 989.648438 883.773438 986.894531 887.398438 984.039062 C 891.019531 981.1875 894.5625 978.234375 898.019531 975.179688 C 901.480469 972.128906 904.851562 968.980469 908.132812 965.742188 C 911.417969 962.5 914.605469 959.171875 917.703125 955.753906 C 920.804688 952.335938 923.804688 948.835938 926.707031 945.25 C 931.152344 939.8125 935.363281 934.191406 939.328125 928.394531 C 943.296875 922.59375 947.011719 916.636719 950.46875 910.519531 C 953.925781 904.402344 957.113281 898.152344 960.035156 891.761719 C 962.957031 885.371094 965.601562 878.867188 967.964844 872.25 C 970.332031 865.636719 972.410156 858.929688 974.199219 852.136719 C 975.988281 845.339844 977.484375 838.484375 978.6875 831.5625 C 979.894531 824.636719 980.796875 817.675781 981.40625 810.675781 C 982.011719 803.675781 982.320312 796.664062 982.324219 789.636719 L 982.324219 788.300781 C 982.382812 651.003906 870.691406 539.304688 733.394531 539.304688 Z M 733.394531 539.304688 " fill-opacity="1" fill-rule="nonzero"/><path fill="#d9cfbc" d="M 733.394531 1130.273438 C 729.199219 1130.273438 725.003906 1130.195312 720.808594 1130.042969 C 716.613281 1129.886719 712.425781 1129.65625 708.238281 1129.347656 C 704.054688 1129.039062 699.875 1128.652344 695.703125 1128.1875 C 691.53125 1127.726562 687.371094 1127.1875 683.21875 1126.570312 C 679.066406 1125.957031 674.925781 1125.261719 670.800781 1124.496094 C 666.675781 1123.726562 662.5625 1122.882812 658.46875 1121.964844 C 654.375 1121.042969 650.296875 1120.050781 646.238281 1118.980469 C 642.179688 1117.910156 638.140625 1116.765625 634.125 1115.546875 C 630.109375 1114.328125 626.117188 1113.039062 622.148438 1111.671875 C 618.179688 1110.308594 614.238281 1108.867188 610.320312 1107.359375 C 606.40625 1105.847656 602.519531 1104.265625 598.660156 1102.613281 C 594.804688 1100.957031 590.976562 1099.234375 587.183594 1097.441406 C 583.390625 1095.644531 579.628906 1093.78125 575.902344 1091.847656 C 572.179688 1089.914062 568.488281 1087.914062 564.835938 1085.847656 C 561.1875 1083.777344 557.574219 1081.640625 554 1079.441406 C 550.425781 1077.238281 546.894531 1074.972656 543.40625 1072.640625 C 539.914062 1070.308594 536.46875 1067.914062 533.070312 1065.453125 C 529.667969 1062.996094 526.3125 1060.476562 523.003906 1057.894531 C 519.695312 1055.3125 516.433594 1052.667969 513.222656 1049.964844 C 510.011719 1047.265625 506.851562 1044.503906 503.742188 1041.683594 C 500.628906 1038.867188 497.574219 1035.992188 494.570312 1033.058594 C 491.566406 1030.128906 488.617188 1027.144531 485.722656 1024.105469 C 482.828125 1021.0625 479.992188 1017.972656 477.210938 1014.828125 C 474.429688 1011.683594 471.710938 1008.488281 469.046875 1005.246094 C 466.382812 1002 463.78125 998.707031 461.242188 995.367188 C 458.699219 992.027344 456.21875 988.640625 453.804688 985.210938 C 451.386719 981.777344 449.035156 978.304688 446.746094 974.785156 C 444.457031 971.269531 442.234375 967.707031 440.074219 964.109375 C 437.917969 960.507812 435.828125 956.871094 433.804688 953.195312 C 431.777344 949.515625 429.824219 945.804688 427.9375 942.054688 C 426.050781 938.304688 424.230469 934.523438 422.484375 930.707031 C 420.738281 926.890625 419.058594 923.042969 417.453125 919.167969 C 415.847656 915.289062 414.3125 911.382812 412.851562 907.449219 C 411.386719 903.515625 410 899.554688 408.683594 895.570312 C 407.367188 891.585938 406.121094 887.578125 404.953125 883.546875 C 403.785156 879.515625 402.691406 875.464844 401.671875 871.390625 C 400.652344 867.320312 399.707031 863.230469 398.835938 859.125 C 397.96875 855.019531 397.175781 850.898438 396.457031 846.765625 C 395.738281 842.628906 395.097656 838.480469 394.535156 834.324219 C 393.96875 830.164062 393.480469 825.996094 393.070312 821.820312 C 392.65625 817.640625 392.324219 813.457031 392.066406 809.269531 C 391.808594 805.082031 391.628906 800.886719 391.523438 796.691406 C 391.421875 792.496094 391.398438 788.300781 391.449219 784.101562 C 391.5 779.90625 391.628906 775.710938 391.835938 771.519531 C 392.039062 767.328125 392.324219 763.140625 392.683594 758.960938 C 393.042969 754.777344 393.480469 750.605469 393.992188 746.4375 C 394.507812 742.273438 395.097656 738.117188 395.765625 733.972656 C 396.429688 729.832031 397.175781 725.699219 397.992188 721.582031 C 398.8125 717.46875 399.707031 713.367188 400.675781 709.285156 C 401.644531 705.199219 402.691406 701.136719 403.808594 697.089844 C 404.929688 693.046875 406.121094 689.023438 407.390625 685.019531 C 408.65625 681.019531 410 677.042969 411.414062 673.09375 C 412.828125 669.140625 414.3125 665.214844 415.871094 661.320312 C 417.429688 657.421875 419.058594 653.554688 420.761719 649.71875 C 422.460938 645.878906 424.230469 642.078125 426.074219 638.304688 C 427.914062 634.53125 429.824219 630.796875 431.800781 627.09375 C 433.78125 623.394531 435.828125 619.730469 437.941406 616.101562 C 440.054688 612.476562 442.234375 608.890625 444.476562 605.34375 C 446.722656 601.796875 449.035156 598.296875 451.40625 594.835938 C 453.78125 591.375 456.21875 587.957031 458.71875 584.585938 C 461.21875 581.214844 463.78125 577.890625 466.40625 574.613281 C 469.027344 571.335938 471.707031 568.109375 474.449219 564.933594 C 477.191406 561.753906 479.992188 558.628906 482.847656 555.550781 C 485.703125 552.476562 488.617188 549.457031 491.582031 546.488281 C 495.53125 542.519531 499.574219 538.648438 503.714844 534.878906 C 507.855469 531.109375 512.082031 527.441406 516.40625 523.882812 C 520.726562 520.320312 525.128906 516.871094 529.621094 513.527344 C 534.113281 510.183594 538.683594 506.953125 543.335938 503.835938 C 547.984375 500.71875 552.710938 497.71875 557.511719 494.835938 C 562.308594 491.953125 567.175781 489.191406 572.113281 486.546875 C 577.046875 483.90625 582.046875 481.386719 587.105469 478.988281 C 592.167969 476.59375 597.285156 474.324219 602.457031 472.183594 C 607.628906 470.039062 612.851562 468.027344 618.121094 466.144531 C 623.394531 464.257812 628.710938 462.503906 634.070312 460.882812 C 639.429688 459.261719 644.824219 457.773438 650.257812 456.417969 C 655.6875 455.066406 661.152344 453.84375 666.644531 452.761719 C 672.136719 451.675781 677.652344 450.726562 683.191406 449.914062 C 688.730469 449.105469 694.289062 448.429688 699.859375 447.890625 C 705.433594 447.355469 711.015625 446.957031 716.609375 446.695312 C 722.203125 446.433594 727.796875 446.308594 733.394531 446.324219 C 734.933594 446.304688 736.464844 446.359375 737.996094 446.488281 C 739.527344 446.617188 741.046875 446.824219 742.558594 447.105469 C 744.070312 447.386719 745.5625 447.742188 747.039062 448.171875 C 748.515625 448.597656 749.964844 449.101562 751.390625 449.671875 C 752.816406 450.246094 754.210938 450.886719 755.574219 451.597656 C 756.933594 452.308594 758.257812 453.085938 759.542969 453.929688 C 760.828125 454.769531 762.070312 455.675781 763.265625 456.640625 C 764.460938 457.605469 765.605469 458.628906 766.699219 459.707031 C 767.792969 460.785156 768.832031 461.914062 769.8125 463.097656 C 770.796875 464.277344 771.71875 465.503906 772.578125 466.777344 C 773.4375 468.050781 774.234375 469.363281 774.964844 470.714844 C 775.695312 472.066406 776.355469 473.453125 776.949219 474.871094 C 777.542969 476.289062 778.0625 477.730469 778.511719 479.199219 C 778.964844 480.667969 779.339844 482.15625 779.640625 483.664062 C 779.945312 485.171875 780.171875 486.6875 780.324219 488.21875 C 780.476562 489.746094 780.550781 491.277344 780.550781 492.816406 C 780.550781 494.351562 780.476562 495.882812 780.324219 497.414062 C 780.171875 498.941406 779.945312 500.460938 779.640625 501.96875 C 779.339844 503.472656 778.964844 504.960938 778.511719 506.429688 C 778.0625 507.898438 777.542969 509.34375 776.949219 510.761719 C 776.355469 512.179688 775.695312 513.5625 774.964844 514.914062 C 774.234375 516.265625 773.4375 517.578125 772.578125 518.851562 C 771.71875 520.125 770.796875 521.351562 769.8125 522.535156 C 768.832031 523.714844 767.792969 524.847656 766.699219 525.925781 C 765.605469 527.003906 764.460938 528.023438 763.265625 528.992188 C 762.070312 529.957031 760.828125 530.859375 759.542969 531.703125 C 758.257812 532.542969 756.933594 533.320312 755.574219 534.03125 C 754.210938 534.742188 752.816406 535.382812 751.390625 535.957031 C 749.964844 536.53125 748.515625 537.03125 747.039062 537.460938 C 745.5625 537.890625 744.070312 538.246094 742.558594 538.523438 C 741.046875 538.804688 739.527344 539.011719 737.996094 539.140625 C 736.464844 539.273438 734.933594 539.328125 733.394531 539.304688 C 596.101562 539.304688 484.402344 651.003906 484.402344 788.300781 C 484.402344 925.59375 596.101562 1037.285156 733.394531 1037.285156 C 738.007812 1037.292969 742.617188 1037.171875 747.222656 1036.921875 C 751.832031 1036.671875 756.425781 1036.292969 761.011719 1035.789062 C 765.597656 1035.28125 770.164062 1034.648438 774.714844 1033.886719 C 779.261719 1033.125 783.789062 1032.238281 788.289062 1031.226562 C 792.789062 1030.214844 797.257812 1029.074219 801.695312 1027.8125 C 806.132812 1026.550781 810.53125 1025.167969 814.890625 1023.660156 C 819.25 1022.152344 823.5625 1020.523438 827.832031 1018.777344 C 832.101562 1017.027344 836.320312 1015.164062 840.484375 1013.179688 C 844.648438 1011.199219 848.753906 1009.101562 852.804688 1006.886719 C 856.851562 1004.675781 860.835938 1002.355469 864.753906 999.917969 C 868.671875 997.484375 872.519531 994.945312 876.296875 992.296875 C 880.074219 989.648438 883.773438 986.894531 887.398438 984.039062 C 891.019531 981.1875 894.5625 978.234375 898.019531 975.179688 C 901.480469 972.128906 904.851562 968.980469 908.132812 965.742188 C 911.417969 962.5 914.605469 959.171875 917.703125 955.753906 C 920.804688 952.335938 923.804688 948.835938 926.707031 945.25 C 931.152344 939.8125 935.363281 934.191406 939.328125 928.394531 C 943.296875 922.59375 947.011719 916.636719 950.46875 910.519531 C 953.925781 904.402344 957.113281 898.152344 960.035156 891.761719 C 962.957031 885.371094 965.601562 878.867188 967.964844 872.25 C 970.332031 865.636719 972.410156 858.929688 974.199219 852.136719 C 975.988281 845.339844 977.484375 838.484375 978.6875 831.5625 C 979.894531 824.636719 980.796875 817.675781 981.40625 810.675781 C 982.011719 803.675781 982.320312 796.664062 982.324219 789.636719 C 982.324219 789.328125 982.324219 789.015625 982.324219 788.695312 L 982.324219 788.28125 C 982.324219 786.757812 982.398438 785.238281 982.546875 783.722656 C 982.699219 782.207031 982.921875 780.703125 983.21875 779.210938 C 983.515625 777.714844 983.886719 776.242188 984.328125 774.785156 C 984.769531 773.328125 985.28125 771.894531 985.863281 770.488281 C 986.445312 769.082031 987.097656 767.707031 987.816406 766.363281 C 988.53125 765.019531 989.3125 763.714844 990.160156 762.449219 C 991.007812 761.183594 991.914062 759.960938 992.878906 758.785156 C 993.84375 757.609375 994.867188 756.480469 995.941406 755.40625 C 997.019531 754.328125 998.144531 753.304688 999.324219 752.339844 C 1000.5 751.375 1001.722656 750.46875 1002.988281 749.621094 C 1004.253906 748.777344 1005.558594 747.996094 1006.902344 747.277344 C 1008.246094 746.558594 1009.621094 745.910156 1011.027344 745.324219 C 1012.433594 744.742188 1013.863281 744.230469 1015.320312 743.789062 C 1016.78125 743.347656 1018.253906 742.976562 1019.75 742.679688 C 1021.242188 742.382812 1022.746094 742.160156 1024.261719 742.011719 C 1025.777344 741.863281 1027.296875 741.785156 1028.820312 741.785156 C 1030.339844 741.785156 1031.859375 741.863281 1033.375 742.011719 C 1034.890625 742.160156 1036.394531 742.382812 1037.890625 742.679688 C 1039.382812 742.976562 1040.859375 743.347656 1042.316406 743.789062 C 1043.773438 744.230469 1045.203125 744.742188 1046.609375 745.324219 C 1048.019531 745.910156 1049.394531 746.558594 1050.734375 747.277344 C 1052.078125 747.996094 1053.382812 748.777344 1054.648438 749.621094 C 1055.914062 750.46875 1057.136719 751.375 1058.3125 752.339844 C 1059.492188 753.304688 1060.617188 754.328125 1061.695312 755.40625 C 1062.773438 756.480469 1063.792969 757.609375 1064.757812 758.785156 C 1065.726562 759.960938 1066.632812 761.183594 1067.476562 762.449219 C 1068.324219 763.714844 1069.105469 765.019531 1069.824219 766.363281 C 1070.539062 767.707031 1071.191406 769.082031 1071.773438 770.488281 C 1072.355469 771.894531 1072.867188 773.328125 1073.308594 774.785156 C 1073.753906 776.242188 1074.121094 777.714844 1074.417969 779.210938 C 1074.714844 780.703125 1074.9375 782.207031 1075.089844 783.722656 C 1075.238281 785.238281 1075.3125 786.757812 1075.3125 788.28125 C 1075.3125 789.027344 1075.3125 789.769531 1075.3125 790.515625 C 1075.28125 796.089844 1075.113281 801.660156 1074.8125 807.226562 C 1074.507812 812.792969 1074.070312 818.347656 1073.492188 823.894531 C 1072.917969 829.4375 1072.207031 834.964844 1071.363281 840.476562 C 1070.515625 845.984375 1069.535156 851.472656 1068.421875 856.933594 C 1067.308594 862.394531 1066.058594 867.828125 1064.679688 873.226562 C 1063.300781 878.628906 1061.789062 883.992188 1060.144531 889.320312 C 1058.503906 894.644531 1056.730469 899.929688 1054.828125 905.171875 C 1052.925781 910.410156 1050.898438 915.601562 1048.742188 920.742188 C 1046.589844 925.882812 1044.308594 930.96875 1041.902344 935.996094 C 1039.5 941.027344 1036.972656 945.992188 1034.324219 950.898438 C 1031.675781 955.804688 1028.910156 960.644531 1026.027344 965.414062 C 1023.144531 970.183594 1020.144531 974.878906 1017.027344 979.503906 C 1013.914062 984.128906 1010.6875 988.671875 1007.351562 993.136719 C 1004.015625 997.601562 1000.570312 1001.984375 997.019531 1006.28125 C 993.46875 1010.578125 989.8125 1014.785156 986.054688 1018.902344 C 982.300781 1023.023438 978.445312 1027.046875 974.488281 1030.976562 C 970.535156 1034.902344 966.488281 1038.734375 962.34375 1042.464844 C 958.203125 1046.195312 953.972656 1049.824219 949.652344 1053.347656 C 945.335938 1056.871094 940.929688 1060.289062 936.445312 1063.597656 C 931.957031 1066.90625 927.394531 1070.101562 922.75 1073.1875 C 918.105469 1076.273438 913.390625 1079.242188 908.601562 1082.097656 C 903.816406 1084.949219 898.960938 1087.6875 894.035156 1090.300781 C 889.113281 1092.917969 884.132812 1095.414062 879.085938 1097.785156 C 874.042969 1100.160156 868.941406 1102.40625 863.789062 1104.527344 C 858.632812 1106.652344 853.429688 1108.648438 848.179688 1110.515625 C 842.925781 1112.382812 837.632812 1114.121094 832.292969 1115.730469 C 826.957031 1117.339844 821.582031 1118.820312 816.175781 1120.164062 C 810.765625 1121.511719 805.324219 1122.722656 799.855469 1123.804688 C 794.386719 1124.882812 788.894531 1125.828125 783.378906 1126.640625 C 777.863281 1127.449219 772.332031 1128.125 766.785156 1128.664062 C 761.234375 1129.207031 755.679688 1129.609375 750.109375 1129.878906 C 744.542969 1130.144531 738.96875 1130.277344 733.394531 1130.273438 Z M 733.394531 1130.273438 " fill-opacity="1" fill-rule="nonzero"/></g></svg>