<svg xmlns="http://www.w3.org/2000/svg" xmlns:xlink="http://www.w3.org/1999/xlink" width="1920" zoomAndPan="magnify" viewBox="0 0 1440 1447.9199" height="1920" preserveAspectRatio="xMidYMid meet" version="1.0"><defs><g/><clipPath id="8929263fd1"><path d="M 0.0390625 0 L 1439.960938 0 L 1439.960938 1439.921875 L 0.0390625 1439.921875 Z M 0.0390625 0 " clip-rule="nonzero"/></clipPath><clipPath id="5e2ee8c08c"><path d="M 373 459 L 1050.828125 459 L 1050.828125 1136.90625 L 373 1136.90625 Z M 373 459 " clip-rule="nonzero"/></clipPath><clipPath id="305a928bde"><path d="M 373 751 L 1050.828125 751 L 1050.828125 1136.90625 L 373 1136.90625 Z M 373 751 " clip-rule="nonzero"/></clipPath><clipPath id="e59fa37503"><path d="M 665 751 L 1050.828125 751 L 1050.828125 1136.90625 L 665 1136.90625 Z M 665 751 " clip-rule="nonzero"/></clipPath><clipPath id="afa9d349e9"><path d="M 241 472 L 366 472 L 366 624 L 241 624 Z M 241 472 " clip-rule="nonzero"/></clipPath><clipPath id="a6c507f225"><path d="M 224.886719 494.09375 L 357.789062 463.003906 L 391.785156 608.324219 L 258.878906 639.414062 Z M 224.886719 494.09375 " clip-rule="nonzero"/></clipPath><clipPath id="327aa8d611"><path d="M 224.886719 494.09375 L 357.789062 463.003906 L 391.785156 608.324219 L 258.878906 639.414062 Z M 224.886719 494.09375 " clip-rule="nonzero"/></clipPath><clipPath id="261d05a46b"><path d="M 1050.824219 1022 L 1227.8125 1022 L 1227.8125 1208 L 1050.824219 1208 Z M 1050.824219 1022 " clip-rule="nonzero"/></clipPath></defs><g clip-path="url(#8929263fd1)"><path fill="#ffffff" d="M 0.0390625 0 L 1439.960938 0 L 1439.960938 1439.921875 L 0.0390625 1439.921875 Z M 0.0390625 0 " fill-opacity="1" fill-rule="nonzero"/><path fill="#3e3327" d="M 0.0390625 0 L 1439.960938 0 L 1439.960938 1439.921875 L 0.0390625 1439.921875 Z M 0.0390625 0 " fill-opacity="1" fill-rule="nonzero"/></g><path fill="#5c4c3a" d="M 1002.496094 798.230469 C 1002.496094 803.015625 1002.378906 807.796875 1002.140625 812.574219 C 1001.90625 817.355469 1001.554688 822.125 1001.085938 826.886719 C 1000.617188 831.648438 1000.03125 836.394531 999.332031 841.128906 C 998.628906 845.863281 997.808594 850.574219 996.875 855.265625 C 995.945312 859.960938 994.894531 864.625 993.734375 869.269531 C 992.570312 873.910156 991.292969 878.519531 989.90625 883.097656 C 988.515625 887.675781 987.015625 892.21875 985.40625 896.722656 C 983.792969 901.226562 982.070312 905.691406 980.238281 910.113281 C 978.410156 914.53125 976.46875 918.90625 974.425781 923.230469 C 972.378906 927.554688 970.230469 931.828125 967.972656 936.046875 C 965.71875 940.269531 963.359375 944.429688 960.898438 948.535156 C 958.441406 952.636719 955.882812 956.679688 953.222656 960.65625 C 950.566406 964.636719 947.8125 968.546875 944.960938 972.390625 C 942.109375 976.230469 939.167969 980.003906 936.132812 983.703125 C 933.097656 987.398438 929.972656 991.023438 926.757812 994.566406 C 923.546875 998.113281 920.246094 1001.578125 916.863281 1004.960938 C 913.480469 1008.34375 910.015625 1011.640625 906.472656 1014.855469 C 902.925781 1018.066406 899.304688 1021.191406 895.605469 1024.226562 C 891.90625 1027.261719 888.136719 1030.207031 884.292969 1033.054688 C 880.449219 1035.90625 876.539062 1038.660156 872.5625 1041.320312 C 868.582031 1043.976562 864.542969 1046.535156 860.4375 1048.996094 C 856.332031 1051.457031 852.171875 1053.8125 847.953125 1056.070312 C 843.734375 1058.324219 839.460938 1060.476562 835.132812 1062.519531 C 830.808594 1064.566406 826.4375 1066.503906 822.015625 1068.335938 C 817.59375 1070.167969 813.132812 1071.886719 808.628906 1073.5 C 804.121094 1075.113281 799.582031 1076.613281 795.003906 1078 C 790.421875 1079.390625 785.8125 1080.667969 781.171875 1081.828125 C 776.53125 1082.992188 771.863281 1084.039062 767.171875 1084.972656 C 762.480469 1085.90625 757.765625 1086.722656 753.03125 1087.425781 C 748.300781 1088.128906 743.550781 1088.714844 738.792969 1089.183594 C 734.03125 1089.652344 729.257812 1090.003906 724.480469 1090.238281 C 719.703125 1090.472656 714.917969 1090.589844 710.132812 1090.589844 C 705.351562 1090.589844 700.566406 1090.472656 695.789062 1090.238281 C 691.011719 1090.003906 686.238281 1089.652344 681.476562 1089.183594 C 676.714844 1088.714844 671.96875 1088.128906 667.238281 1087.425781 C 662.503906 1086.722656 657.789062 1085.90625 653.097656 1084.972656 C 648.40625 1084.039062 643.738281 1082.992188 639.097656 1081.828125 C 634.457031 1080.667969 629.847656 1079.390625 625.265625 1078 C 620.6875 1076.613281 616.148438 1075.113281 611.640625 1073.5 C 607.136719 1071.886719 602.675781 1070.167969 598.253906 1068.335938 C 593.832031 1066.503906 589.460938 1064.566406 585.132812 1062.519531 C 580.808594 1060.476562 576.535156 1058.324219 572.316406 1056.070312 C 568.097656 1053.8125 563.9375 1051.457031 559.832031 1048.996094 C 555.726562 1046.535156 551.6875 1043.976562 547.707031 1041.320312 C 543.730469 1038.660156 539.820312 1035.90625 535.976562 1033.054688 C 532.132812 1030.207031 528.363281 1027.261719 524.664062 1024.226562 C 520.964844 1021.191406 517.34375 1018.066406 513.796875 1014.855469 C 510.253906 1011.640625 506.789062 1008.34375 503.40625 1004.960938 C 500.023438 1001.578125 496.722656 998.113281 493.511719 994.566406 C 490.296875 991.023438 487.171875 987.398438 484.136719 983.703125 C 481.101562 980.003906 478.160156 976.230469 475.308594 972.390625 C 472.457031 968.546875 469.703125 964.636719 467.046875 960.65625 C 464.386719 956.679688 461.828125 952.636719 459.371094 948.535156 C 456.910156 944.429688 454.550781 940.269531 452.296875 936.046875 C 450.039062 931.828125 447.890625 927.554688 445.84375 923.230469 C 443.796875 918.90625 441.859375 914.53125 440.03125 910.113281 C 438.199219 905.691406 436.476562 901.226562 434.863281 896.722656 C 433.253906 892.21875 431.753906 887.675781 430.363281 883.097656 C 428.976562 878.519531 427.699219 873.910156 426.535156 869.269531 C 425.375 864.625 424.324219 859.960938 423.390625 855.265625 C 422.460938 850.574219 421.640625 845.863281 420.9375 841.128906 C 420.238281 836.394531 419.652344 831.648438 419.183594 826.886719 C 418.714844 822.125 418.363281 817.355469 418.128906 812.574219 C 417.890625 807.796875 417.773438 803.015625 417.773438 798.230469 C 417.773438 793.445312 417.890625 788.664062 418.128906 783.886719 C 418.363281 779.105469 418.714844 774.335938 419.183594 769.574219 C 419.652344 764.8125 420.238281 760.066406 420.9375 755.332031 C 421.640625 750.597656 422.460938 745.886719 423.390625 741.195312 C 424.324219 736.5 425.375 731.835938 426.535156 727.191406 C 427.699219 722.550781 428.976562 717.941406 430.363281 713.363281 C 431.753906 708.785156 433.253906 704.242188 434.863281 699.738281 C 436.476562 695.230469 438.199219 690.769531 440.03125 686.347656 C 441.859375 681.929688 443.796875 677.554688 445.84375 673.230469 C 447.890625 668.90625 450.039062 664.632812 452.296875 660.414062 C 454.550781 656.191406 456.910156 652.03125 459.371094 647.925781 C 461.828125 643.824219 464.386719 639.78125 467.046875 635.804688 C 469.703125 631.824219 472.457031 627.914062 475.308594 624.070312 C 478.160156 620.230469 481.101562 616.457031 484.136719 612.757812 C 487.171875 609.0625 490.296875 605.4375 493.511719 601.894531 C 496.722656 598.347656 500.023438 594.882812 503.40625 591.5 C 506.789062 588.117188 510.253906 584.820312 513.796875 581.605469 C 517.34375 578.394531 520.964844 575.269531 524.664062 572.234375 C 528.363281 569.199219 532.132812 566.253906 535.976562 563.40625 C 539.820312 560.554688 543.730469 557.800781 547.707031 555.140625 C 551.6875 552.484375 555.726562 549.925781 559.832031 547.464844 C 563.9375 545.003906 568.097656 542.648438 572.316406 540.390625 C 576.535156 538.136719 580.808594 535.984375 585.132812 533.941406 C 589.460938 531.894531 593.832031 529.957031 598.253906 528.125 C 602.675781 526.292969 607.136719 524.574219 611.640625 522.960938 C 616.148438 521.347656 620.6875 519.847656 625.265625 518.460938 C 629.847656 517.070312 634.457031 515.792969 639.097656 514.632812 C 643.738281 513.46875 648.40625 512.421875 653.097656 511.488281 C 657.789062 510.554688 662.503906 509.738281 667.238281 509.035156 C 671.96875 508.332031 676.714844 507.746094 681.476562 507.277344 C 686.238281 506.808594 691.011719 506.457031 695.789062 506.222656 C 700.566406 505.988281 705.351562 505.871094 710.132812 505.871094 C 714.917969 505.871094 719.703125 505.988281 724.480469 506.222656 C 729.257812 506.457031 734.03125 506.808594 738.789062 507.277344 C 743.550781 507.746094 748.300781 508.332031 753.03125 509.035156 C 757.765625 509.738281 762.480469 510.554688 767.171875 511.488281 C 771.863281 512.421875 776.53125 513.46875 781.171875 514.632812 C 785.8125 515.792969 790.421875 517.070312 795.003906 518.460938 C 799.582031 519.847656 804.121094 521.347656 808.628906 522.960938 C 813.132812 524.574219 817.59375 526.292969 822.015625 528.125 C 826.4375 529.957031 830.808594 531.894531 835.132812 533.941406 C 839.460938 535.984375 843.734375 538.136719 847.953125 540.390625 C 852.171875 542.648438 856.332031 545.003906 860.4375 547.464844 C 864.542969 549.925781 868.582031 552.484375 872.5625 555.140625 C 876.539062 557.800781 880.449219 560.554688 884.292969 563.40625 C 888.136719 566.253906 891.90625 569.199219 895.605469 572.234375 C 899.304688 575.269531 902.925781 578.394531 906.472656 581.605469 C 910.015625 584.820312 913.480469 588.117188 916.863281 591.5 C 920.246094 594.882812 923.546875 598.347656 926.757812 601.894531 C 929.972656 605.4375 933.097656 609.0625 936.132812 612.757812 C 939.167969 616.457031 942.109375 620.230469 944.960938 624.070312 C 947.8125 627.914062 950.566406 631.824219 953.222656 635.804688 C 955.882812 639.78125 958.441406 643.824219 960.898438 647.925781 C 963.359375 652.03125 965.71875 656.191406 967.972656 660.414062 C 970.230469 664.632812 972.378906 668.90625 974.425781 673.230469 C 976.46875 677.554688 978.410156 681.929688 980.238281 686.347656 C 982.070312 690.769531 983.792969 695.230469 985.40625 699.738281 C 987.015625 704.242188 988.515625 708.785156 989.90625 713.363281 C 991.292969 717.941406 992.570312 722.550781 993.734375 727.191406 C 994.894531 731.835938 995.945312 736.5 996.875 741.195312 C 997.808594 745.886719 998.628906 750.597656 999.332031 755.332031 C 1000.03125 760.066406 1000.617188 764.8125 1001.085938 769.574219 C 1001.554688 774.335938 1001.90625 779.105469 1002.140625 783.886719 C 1002.378906 788.664062 1002.496094 793.445312 1002.496094 798.230469 Z M 1002.496094 798.230469 " fill-opacity="1" fill-rule="nonzero"/><path fill="#5c4c3a" d="M 976.308594 815.835938 C 975.898438 894.921875 1027.832031 918 976.402344 970.886719 C 936.566406 1011.851562 844.207031 1044.136719 786.15625 1057.113281 L 627.785156 885.183594 L 867.023438 696.507812 Z M 976.308594 815.835938 " fill-opacity="1" fill-rule="nonzero"/><g clip-path="url(#5e2ee8c08c)"><path fill="#f8f1e5" d="M 711.984375 1136.632812 C 707.828125 1136.632812 703.671875 1136.558594 699.519531 1136.40625 C 695.363281 1136.253906 691.214844 1136.023438 687.070312 1135.71875 C 682.925781 1135.410156 678.785156 1135.027344 674.65625 1134.570312 C 670.523438 1134.113281 666.402344 1133.578125 662.289062 1132.96875 C 658.179688 1132.359375 654.082031 1131.671875 649.992188 1130.914062 C 645.90625 1130.152344 641.835938 1129.316406 637.78125 1128.40625 C 633.726562 1127.496094 629.6875 1126.511719 625.667969 1125.449219 C 621.648438 1124.390625 617.652344 1123.257812 613.671875 1122.050781 C 609.695312 1120.84375 605.742188 1119.566406 601.8125 1118.214844 C 597.882812 1116.859375 593.976562 1115.4375 590.097656 1113.941406 C 586.222656 1112.445312 582.371094 1110.878906 578.550781 1109.242188 C 574.730469 1107.601562 570.941406 1105.894531 567.183594 1104.117188 C 563.425781 1102.339844 559.703125 1100.496094 556.015625 1098.582031 C 552.324219 1096.667969 548.671875 1094.6875 545.054688 1092.636719 C 541.4375 1090.589844 537.863281 1088.472656 534.324219 1086.292969 C 530.785156 1084.113281 527.285156 1081.867188 523.832031 1079.558594 C 520.375 1077.25 516.960938 1074.878906 513.59375 1072.441406 C 510.226562 1070.007812 506.902344 1067.511719 503.625 1064.953125 C 500.347656 1062.398438 497.121094 1059.78125 493.941406 1057.105469 C 490.757812 1054.429688 487.628906 1051.695312 484.550781 1048.902344 C 481.46875 1046.113281 478.441406 1043.265625 475.46875 1040.363281 C 472.492188 1037.460938 469.570312 1034.503906 466.707031 1031.492188 C 463.839844 1028.480469 461.03125 1025.421875 458.277344 1022.304688 C 455.523438 1019.191406 452.828125 1016.027344 450.191406 1012.816406 C 447.554688 1009.601562 444.976562 1006.34375 442.460938 1003.035156 C 439.945312 999.726562 437.488281 996.375 435.09375 992.976562 C 432.703125 989.578125 430.371094 986.136719 428.105469 982.652344 C 425.839844 979.167969 423.636719 975.644531 421.5 972.078125 C 419.363281 968.511719 417.292969 964.910156 415.289062 961.269531 C 413.285156 957.625 411.347656 953.949219 409.480469 950.238281 C 407.609375 946.523438 405.808594 942.777344 404.078125 939 C 402.347656 935.21875 400.6875 931.410156 399.097656 927.570312 C 397.507812 923.730469 395.988281 919.863281 394.539062 915.964844 C 393.089844 912.070312 391.714844 908.148438 390.410156 904.203125 C 389.105469 900.253906 387.875 896.285156 386.71875 892.292969 C 385.5625 888.300781 384.476562 884.289062 383.46875 880.257812 C 382.457031 876.226562 381.523438 872.175781 380.660156 868.109375 C 379.800781 864.042969 379.015625 859.964844 378.304688 855.867188 C 377.59375 851.773438 376.957031 847.664062 376.398438 843.546875 C 375.839844 839.429688 375.355469 835.300781 374.949219 831.164062 C 374.542969 827.027344 374.210938 822.886719 373.957031 818.734375 C 373.699219 814.585938 373.523438 810.433594 373.417969 806.28125 C 373.316406 802.125 373.292969 797.96875 373.34375 793.8125 C 373.394531 789.65625 373.523438 785.503906 373.726562 781.351562 C 373.929688 777.199219 374.210938 773.054688 374.566406 768.914062 C 374.921875 764.769531 375.355469 760.636719 375.863281 756.511719 C 376.375 752.386719 376.957031 748.273438 377.617188 744.167969 C 378.277344 740.066406 379.015625 735.976562 379.824219 731.898438 C 380.636719 727.820312 381.523438 723.761719 382.480469 719.71875 C 383.441406 715.671875 384.476562 711.648438 385.585938 707.644531 C 386.695312 703.636719 387.875 699.652344 389.132812 695.691406 C 390.386719 691.726562 391.714844 687.789062 393.113281 683.875 C 394.515625 679.960938 395.988281 676.074219 397.53125 672.214844 C 399.074219 668.355469 400.6875 664.527344 402.371094 660.726562 C 404.054688 656.929688 405.808594 653.160156 407.632812 649.425781 C 409.457031 645.691406 411.347656 641.988281 413.308594 638.324219 C 415.265625 634.65625 417.292969 631.027344 419.386719 627.4375 C 421.476562 623.847656 423.636719 620.296875 425.859375 616.785156 C 428.085938 613.273438 430.371094 609.800781 432.722656 606.375 C 435.074219 602.949219 437.488281 599.566406 439.964844 596.226562 C 442.441406 592.886719 444.976562 589.597656 447.574219 586.351562 C 450.171875 583.105469 452.828125 579.910156 455.542969 576.761719 C 458.257812 573.613281 461.03125 570.519531 463.859375 567.472656 C 466.6875 564.429688 469.570312 561.4375 472.511719 558.496094 C 475.449219 555.558594 478.441406 552.671875 481.488281 549.84375 C 484.53125 547.015625 487.628906 544.242188 490.777344 541.527344 C 493.921875 538.8125 497.121094 536.15625 500.363281 533.558594 C 503.609375 530.964844 506.902344 528.425781 510.242188 525.949219 C 513.578125 523.472656 516.960938 521.0625 520.390625 518.710938 C 523.816406 516.359375 527.285156 514.070312 530.796875 511.847656 C 534.308594 509.621094 537.859375 507.464844 541.453125 505.371094 C 545.042969 503.277344 548.671875 501.253906 552.335938 499.292969 C 556.003906 497.332031 559.703125 495.441406 563.4375 493.621094 C 567.175781 491.796875 570.941406 490.042969 574.742188 488.359375 C 578.542969 486.671875 582.371094 485.058594 586.230469 483.515625 C 590.089844 481.972656 593.976562 480.5 597.890625 479.101562 C 601.804688 477.699219 605.742188 476.371094 609.703125 475.117188 C 613.667969 473.863281 617.652344 472.679688 621.65625 471.570312 C 625.664062 470.464844 629.6875 469.429688 633.730469 468.46875 C 637.777344 467.507812 641.835938 466.621094 645.914062 465.8125 C 649.988281 465 654.078125 464.265625 658.183594 463.605469 C 662.289062 462.945312 666.402344 462.359375 670.527344 461.851562 C 674.652344 461.34375 678.785156 460.910156 682.925781 460.550781 C 687.066406 460.195312 691.214844 459.914062 695.367188 459.710938 C 699.515625 459.507812 703.671875 459.378906 707.828125 459.328125 C 711.984375 459.277344 716.140625 459.304688 720.292969 459.40625 C 724.449219 459.507812 728.601562 459.6875 732.75 459.941406 C 736.898438 460.195312 741.042969 460.527344 745.179688 460.933594 C 749.316406 461.34375 753.441406 461.824219 757.5625 462.382812 C 761.679688 462.945312 765.785156 463.578125 769.882812 464.289062 C 773.976562 465 778.058594 465.785156 782.125 466.648438 C 786.191406 467.507812 790.242188 468.441406 794.273438 469.453125 C 798.304688 470.464844 802.316406 471.546875 806.308594 472.703125 C 810.300781 473.863281 814.269531 475.09375 818.214844 476.398438 C 822.164062 477.699219 826.085938 479.078125 829.980469 480.523438 C 833.875 481.972656 837.746094 483.492188 841.585938 485.082031 C 845.425781 486.671875 849.234375 488.335938 853.011719 490.066406 C 856.792969 491.796875 860.539062 493.597656 864.25 495.464844 C 867.964844 497.332031 871.640625 499.269531 875.28125 501.273438 C 878.921875 503.277344 882.527344 505.347656 886.09375 507.484375 C 889.65625 509.621094 893.183594 511.824219 896.664062 514.089844 C 900.148438 516.359375 903.589844 518.6875 906.988281 521.082031 C 910.386719 523.476562 913.742188 525.929688 917.046875 528.445312 C 920.355469 530.964844 923.617188 533.539062 926.832031 536.175781 C 930.042969 538.8125 933.207031 541.507812 936.320312 544.261719 C 939.433594 547.015625 942.496094 549.824219 945.507812 552.691406 C 948.515625 555.558594 951.472656 558.476562 954.375 561.453125 C 957.277344 564.429688 960.125 567.457031 962.917969 570.535156 C 965.710938 573.613281 968.441406 576.746094 971.117188 579.925781 C 973.796875 583.105469 976.410156 586.335938 978.96875 589.613281 C 981.527344 592.886719 984.023438 596.210938 986.457031 599.578125 C 988.890625 602.949219 991.265625 606.359375 993.574219 609.816406 C 995.882812 613.273438 998.128906 616.769531 1000.308594 620.308594 C 1002.488281 623.847656 1004.601562 627.425781 1006.652344 631.042969 C 1008.699219 634.65625 1010.683594 638.3125 1012.597656 642 C 1014.511719 645.691406 1016.355469 649.414062 1018.132812 653.171875 C 1019.910156 656.929688 1021.617188 660.71875 1023.253906 664.539062 C 1024.894531 668.359375 1026.460938 672.207031 1027.957031 676.085938 C 1029.453125 679.964844 1030.875 683.867188 1032.226562 687.796875 C 1033.578125 691.726562 1034.859375 695.683594 1036.066406 699.660156 C 1037.273438 703.636719 1038.40625 707.636719 1039.464844 711.65625 C 1040.523438 715.675781 1041.507812 719.710938 1042.417969 723.765625 C 1043.332031 727.824219 1044.167969 731.894531 1044.925781 735.980469 C 1045.6875 740.066406 1046.375 744.164062 1046.984375 748.277344 C 1047.59375 752.386719 1048.128906 756.507812 1048.585938 760.640625 C 1049.042969 764.773438 1049.425781 768.910156 1049.730469 773.054688 C 1050.035156 777.199219 1050.265625 781.351562 1050.417969 785.503906 C 1050.570312 789.65625 1050.648438 793.8125 1050.648438 797.96875 C 1050.648438 798.707031 1050.648438 799.445312 1050.648438 800.191406 C 1050.617188 805.710938 1050.453125 811.230469 1050.152344 816.742188 C 1049.851562 822.253906 1049.414062 827.757812 1048.84375 833.246094 C 1048.273438 838.738281 1047.570312 844.214844 1046.730469 849.671875 C 1045.894531 855.125 1044.921875 860.558594 1043.820312 865.96875 C 1042.714844 871.378906 1041.480469 876.757812 1040.109375 882.105469 C 1038.742188 887.457031 1037.246094 892.769531 1035.617188 898.042969 C 1033.992188 903.320312 1032.234375 908.550781 1030.351562 913.742188 C 1028.46875 918.929688 1026.457031 924.070312 1024.324219 929.164062 C 1022.1875 934.253906 1019.929688 939.289062 1017.546875 944.269531 C 1015.164062 949.25 1012.664062 954.171875 1010.039062 959.027344 C 1007.417969 963.886719 1004.675781 968.679688 1001.820312 973.402344 C 998.964844 978.125 995.992188 982.777344 992.90625 987.355469 C 989.820312 991.933594 986.628906 996.433594 983.320312 1000.855469 C 980.015625 1005.28125 976.605469 1009.617188 973.085938 1013.875 C 969.570312 1018.128906 965.949219 1022.292969 962.226562 1026.371094 C 958.507812 1030.449219 954.6875 1034.433594 950.769531 1038.328125 C 946.855469 1042.21875 942.84375 1046.011719 938.742188 1049.703125 C 934.640625 1053.398438 930.449219 1056.992188 926.171875 1060.480469 C 921.894531 1063.972656 917.53125 1067.355469 913.089844 1070.628906 C 908.644531 1073.90625 904.121094 1077.070312 899.523438 1080.125 C 894.925781 1083.179688 890.253906 1086.121094 885.511719 1088.949219 C 880.769531 1091.773438 875.960938 1094.480469 871.085938 1097.074219 C 866.210938 1099.664062 861.273438 1102.132812 856.277344 1104.480469 C 851.28125 1106.832031 846.230469 1109.058594 841.125 1111.160156 C 836.019531 1113.261719 830.867188 1115.234375 825.664062 1117.085938 C 820.460938 1118.933594 815.21875 1120.65625 809.933594 1122.25 C 804.644531 1123.839844 799.324219 1125.304688 793.964844 1126.636719 C 788.609375 1127.96875 783.222656 1129.167969 777.804688 1130.238281 C 772.386719 1131.304688 766.949219 1132.242188 761.488281 1133.042969 C 756.023438 1133.847656 750.546875 1134.515625 745.050781 1135.046875 C 739.554688 1135.582031 734.050781 1135.980469 728.535156 1136.246094 C 723.023438 1136.511719 717.503906 1136.640625 711.984375 1136.632812 Z M 711.984375 551.382812 C 576.015625 551.382812 465.398438 662.003906 465.398438 797.96875 C 465.398438 933.9375 576.015625 1044.546875 711.984375 1044.546875 C 716.550781 1044.554688 721.117188 1044.433594 725.679688 1044.1875 C 730.238281 1043.9375 734.789062 1043.5625 739.332031 1043.0625 C 743.871094 1042.5625 748.394531 1041.933594 752.902344 1041.179688 C 757.40625 1040.429688 761.886719 1039.550781 766.34375 1038.546875 C 770.800781 1037.542969 775.226562 1036.417969 779.621094 1035.167969 C 784.015625 1033.917969 788.371094 1032.546875 792.6875 1031.050781 C 797.007812 1029.558594 801.277344 1027.949219 805.507812 1026.21875 C 809.734375 1024.484375 813.910156 1022.640625 818.035156 1020.675781 C 822.160156 1018.710938 826.226562 1016.632812 830.234375 1014.445312 C 834.246094 1012.253906 838.1875 1009.953125 842.070312 1007.542969 C 845.949219 1005.132812 849.761719 1002.613281 853.5 999.992188 C 857.242188 997.371094 860.90625 994.644531 864.496094 991.816406 C 868.082031 988.988281 871.589844 986.066406 875.015625 983.042969 C 878.441406 980.019531 881.777344 976.902344 885.03125 973.695312 C 888.28125 970.484375 891.441406 967.1875 894.507812 963.804688 C 897.578125 960.417969 900.546875 956.953125 903.421875 953.402344 C 907.828125 948.015625 911.996094 942.449219 915.925781 936.707031 C 919.855469 930.964844 923.53125 925.066406 926.953125 919.007812 C 930.378906 912.949219 933.539062 906.757812 936.429688 900.429688 C 939.324219 894.101562 941.941406 887.660156 944.285156 881.109375 C 946.625 874.554688 948.683594 867.917969 950.457031 861.1875 C 952.230469 854.460938 953.710938 847.667969 954.902344 840.8125 C 956.09375 833.957031 956.992188 827.0625 957.59375 820.128906 C 958.195312 813.199219 958.496094 806.253906 958.503906 799.292969 L 958.503906 797.96875 C 958.558594 662.003906 847.949219 551.382812 711.984375 551.382812 Z M 711.984375 551.382812 " fill-opacity="1" fill-rule="nonzero"/><path fill="#d9cfbc" d="M 711.984375 1136.632812 C 707.828125 1136.632812 703.671875 1136.558594 699.519531 1136.40625 C 695.363281 1136.253906 691.214844 1136.023438 687.070312 1135.71875 C 682.925781 1135.410156 678.785156 1135.027344 674.65625 1134.570312 C 670.523438 1134.113281 666.402344 1133.578125 662.289062 1132.96875 C 658.179688 1132.359375 654.082031 1131.671875 649.992188 1130.914062 C 645.90625 1130.152344 641.835938 1129.316406 637.78125 1128.40625 C 633.726562 1127.496094 629.6875 1126.511719 625.667969 1125.449219 C 621.648438 1124.390625 617.652344 1123.257812 613.671875 1122.050781 C 609.695312 1120.84375 605.742188 1119.566406 601.8125 1118.214844 C 597.882812 1116.859375 593.976562 1115.4375 590.097656 1113.941406 C 586.222656 1112.445312 582.371094 1110.878906 578.550781 1109.242188 C 574.730469 1107.601562 570.941406 1105.894531 567.183594 1104.117188 C 563.425781 1102.339844 559.703125 1100.496094 556.015625 1098.582031 C 552.324219 1096.667969 548.671875 1094.6875 545.054688 1092.636719 C 541.4375 1090.589844 537.863281 1088.472656 534.324219 1086.292969 C 530.785156 1084.113281 527.285156 1081.867188 523.832031 1079.558594 C 520.375 1077.25 516.960938 1074.878906 513.59375 1072.441406 C 510.226562 1070.007812 506.902344 1067.511719 503.625 1064.953125 C 500.347656 1062.398438 497.121094 1059.78125 493.941406 1057.105469 C 490.757812 1054.429688 487.628906 1051.695312 484.550781 1048.902344 C 481.46875 1046.113281 478.441406 1043.265625 475.46875 1040.363281 C 472.492188 1037.460938 469.570312 1034.503906 466.707031 1031.492188 C 463.839844 1028.480469 461.03125 1025.421875 458.277344 1022.304688 C 455.523438 1019.191406 452.828125 1016.027344 450.191406 1012.816406 C 447.554688 1009.601562 444.976562 1006.34375 442.460938 1003.035156 C 439.945312 999.726562 437.488281 996.375 435.09375 992.976562 C 432.703125 989.578125 430.371094 986.136719 428.105469 982.652344 C 425.839844 979.167969 423.636719 975.644531 421.5 972.078125 C 419.363281 968.511719 417.292969 964.910156 415.289062 961.269531 C 413.285156 957.625 411.347656 953.949219 409.480469 950.238281 C 407.609375 946.523438 405.808594 942.777344 404.078125 939 C 402.347656 935.21875 400.6875 931.410156 399.097656 927.570312 C 397.507812 923.730469 395.988281 919.863281 394.539062 915.964844 C 393.089844 912.070312 391.714844 908.148438 390.410156 904.203125 C 389.105469 900.253906 387.875 896.285156 386.71875 892.292969 C 385.5625 888.300781 384.476562 884.289062 383.46875 880.257812 C 382.457031 876.226562 381.523438 872.175781 380.660156 868.109375 C 379.800781 864.042969 379.015625 859.964844 378.304688 855.867188 C 377.59375 851.773438 376.957031 847.664062 376.398438 843.546875 C 375.839844 839.429688 375.355469 835.300781 374.949219 831.164062 C 374.542969 827.027344 374.210938 822.886719 373.957031 818.734375 C 373.699219 814.585938 373.523438 810.433594 373.417969 806.28125 C 373.316406 802.125 373.292969 797.96875 373.34375 793.8125 C 373.394531 789.65625 373.523438 785.503906 373.726562 781.351562 C 373.929688 777.199219 374.210938 773.054688 374.566406 768.914062 C 374.921875 764.769531 375.355469 760.636719 375.863281 756.511719 C 376.375 752.386719 376.957031 748.273438 377.617188 744.167969 C 378.277344 740.066406 379.015625 735.976562 379.824219 731.898438 C 380.636719 727.820312 381.523438 723.761719 382.480469 719.71875 C 383.441406 715.671875 384.476562 711.648438 385.585938 707.644531 C 386.695312 703.636719 387.875 699.652344 389.132812 695.691406 C 390.386719 691.726562 391.714844 687.789062 393.113281 683.875 C 394.515625 679.960938 395.988281 676.074219 397.53125 672.214844 C 399.074219 668.355469 400.6875 664.527344 402.371094 660.726562 C 404.054688 656.929688 405.808594 653.160156 407.632812 649.425781 C 409.457031 645.691406 411.347656 641.988281 413.308594 638.324219 C 415.265625 634.65625 417.292969 631.027344 419.386719 627.4375 C 421.476562 623.847656 423.636719 620.296875 425.859375 616.785156 C 428.085938 613.273438 430.371094 609.800781 432.722656 606.375 C 435.074219 602.949219 437.488281 599.566406 439.964844 596.226562 C 442.441406 592.886719 444.976562 589.597656 447.574219 586.351562 C 450.171875 583.105469 452.828125 579.910156 455.542969 576.761719 C 458.257812 573.613281 461.03125 570.519531 463.859375 567.472656 C 466.6875 564.429688 469.570312 561.4375 472.511719 558.496094 C 476.421875 554.566406 480.425781 550.734375 484.523438 547 C 488.625 543.265625 492.8125 539.636719 497.089844 536.109375 C 501.371094 532.582031 505.734375 529.164062 510.179688 525.855469 C 514.628906 522.542969 519.15625 519.34375 523.761719 516.257812 C 528.367188 513.171875 533.046875 510.199219 537.796875 507.34375 C 542.550781 504.488281 547.371094 501.753906 552.261719 499.136719 C 557.148438 496.519531 562.097656 494.023438 567.109375 491.652344 C 572.121094 489.28125 577.1875 487.03125 582.308594 484.910156 C 587.433594 482.789062 592.605469 480.792969 597.824219 478.929688 C 603.046875 477.0625 608.3125 475.328125 613.617188 473.71875 C 618.925781 472.113281 624.269531 470.640625 629.648438 469.300781 C 635.027344 467.957031 640.4375 466.75 645.875 465.675781 C 651.316406 464.601562 656.777344 463.664062 662.265625 462.859375 C 667.75 462.054688 673.253906 461.386719 678.773438 460.855469 C 684.292969 460.324219 689.820312 459.925781 695.359375 459.667969 C 700.898438 459.410156 706.4375 459.289062 711.984375 459.304688 C 713.503906 459.28125 715.023438 459.335938 716.539062 459.464844 C 718.054688 459.59375 719.5625 459.796875 721.058594 460.074219 C 722.554688 460.355469 724.03125 460.703125 725.496094 461.128906 C 726.957031 461.554688 728.390625 462.050781 729.804688 462.617188 C 731.214844 463.183594 732.597656 463.820312 733.945312 464.523438 C 735.292969 465.230469 736.605469 466 737.878906 466.832031 C 739.152344 467.667969 740.378906 468.5625 741.5625 469.519531 C 742.746094 470.472656 743.878906 471.484375 744.964844 472.554688 C 746.046875 473.621094 747.074219 474.742188 748.050781 475.910156 C 749.019531 477.082031 749.933594 478.296875 750.785156 479.558594 C 751.636719 480.820312 752.425781 482.117188 753.148438 483.457031 C 753.871094 484.796875 754.527344 486.167969 755.113281 487.570312 C 755.703125 488.976562 756.21875 490.40625 756.664062 491.859375 C 757.109375 493.316406 757.484375 494.789062 757.78125 496.28125 C 758.082031 497.773438 758.308594 499.273438 758.457031 500.789062 C 758.609375 502.304688 758.683594 503.820312 758.683594 505.34375 C 758.683594 506.863281 758.609375 508.382812 758.457031 509.898438 C 758.308594 511.410156 758.082031 512.914062 757.78125 514.40625 C 757.484375 515.898438 757.109375 517.371094 756.664062 518.828125 C 756.21875 520.28125 755.703125 521.710938 755.113281 523.113281 C 754.527344 524.519531 753.871094 525.890625 753.148438 527.230469 C 752.425781 528.566406 751.636719 529.867188 750.785156 531.128906 C 749.933594 532.386719 749.019531 533.605469 748.050781 534.773438 C 747.074219 535.945312 746.046875 537.0625 744.964844 538.132812 C 743.878906 539.199219 742.746094 540.210938 741.5625 541.167969 C 740.378906 542.125 739.152344 543.019531 737.878906 543.855469 C 736.605469 544.6875 735.292969 545.457031 733.945312 546.160156 C 732.597656 546.863281 731.214844 547.5 729.804688 548.066406 C 728.390625 548.636719 726.957031 549.132812 725.492188 549.554688 C 724.03125 549.980469 722.554688 550.332031 721.058594 550.609375 C 719.5625 550.890625 718.054688 551.09375 716.539062 551.222656 C 715.023438 551.351562 713.503906 551.402344 711.984375 551.382812 C 576.015625 551.382812 465.398438 662.003906 465.398438 797.96875 C 465.398438 933.9375 576.015625 1044.546875 711.984375 1044.546875 C 716.550781 1044.554688 721.117188 1044.433594 725.679688 1044.1875 C 730.238281 1043.9375 734.789062 1043.5625 739.332031 1043.0625 C 743.871094 1042.5625 748.394531 1041.933594 752.902344 1041.179688 C 757.40625 1040.429688 761.886719 1039.550781 766.34375 1038.546875 C 770.800781 1037.542969 775.226562 1036.417969 779.621094 1035.167969 C 784.015625 1033.917969 788.371094 1032.546875 792.6875 1031.050781 C 797.007812 1029.558594 801.277344 1027.949219 805.507812 1026.21875 C 809.734375 1024.484375 813.910156 1022.640625 818.035156 1020.675781 C 822.160156 1018.710938 826.226562 1016.632812 830.234375 1014.445312 C 834.246094 1012.253906 838.1875 1009.953125 842.070312 1007.542969 C 845.949219 1005.132812 849.761719 1002.613281 853.5 999.992188 C 857.242188 997.371094 860.90625 994.644531 864.496094 991.816406 C 868.082031 988.988281 871.589844 986.066406 875.015625 983.042969 C 878.441406 980.019531 881.777344 976.902344 885.03125 973.695312 C 888.28125 970.484375 891.441406 967.1875 894.507812 963.804688 C 897.578125 960.417969 900.546875 956.953125 903.421875 953.402344 C 907.828125 948.015625 911.996094 942.449219 915.925781 936.707031 C 919.855469 930.964844 923.53125 925.066406 926.953125 919.007812 C 930.378906 912.949219 933.539062 906.757812 936.429688 900.429688 C 939.324219 894.101562 941.941406 887.660156 944.285156 881.109375 C 946.625 874.554688 948.683594 867.917969 950.457031 861.1875 C 952.230469 854.460938 953.710938 847.667969 954.902344 840.8125 C 956.09375 833.957031 956.992188 827.0625 957.59375 820.128906 C 958.195312 813.199219 958.496094 806.253906 958.503906 799.292969 C 958.503906 798.988281 958.503906 798.6875 958.503906 798.359375 L 958.503906 797.949219 C 958.503906 796.441406 958.578125 794.9375 958.726562 793.4375 C 958.875 791.9375 959.09375 790.445312 959.390625 788.96875 C 959.683594 787.488281 960.050781 786.027344 960.488281 784.585938 C 960.925781 783.140625 961.433594 781.722656 962.007812 780.328125 C 962.585938 778.9375 963.230469 777.574219 963.941406 776.246094 C 964.652344 774.914062 965.425781 773.625 966.265625 772.371094 C 967.101562 771.117188 968 769.90625 968.957031 768.742188 C 969.914062 767.574219 970.925781 766.457031 971.992188 765.390625 C 973.054688 764.324219 974.171875 763.3125 975.339844 762.359375 C 976.503906 761.402344 977.714844 760.503906 978.96875 759.664062 C 980.222656 758.828125 981.511719 758.054688 982.84375 757.34375 C 984.171875 756.632812 985.535156 755.988281 986.929688 755.410156 C 988.320312 754.835938 989.738281 754.328125 991.183594 753.890625 C 992.625 753.449219 994.085938 753.085938 995.566406 752.789062 C 997.042969 752.496094 998.535156 752.277344 1000.035156 752.128906 C 1001.535156 751.980469 1003.039062 751.90625 1004.546875 751.90625 C 1006.054688 751.90625 1007.5625 751.980469 1009.0625 752.128906 C 1010.5625 752.277344 1012.050781 752.496094 1013.53125 752.789062 C 1015.011719 753.085938 1016.472656 753.449219 1017.914062 753.890625 C 1019.355469 754.328125 1020.777344 754.835938 1022.167969 755.410156 C 1023.5625 755.988281 1024.921875 756.632812 1026.253906 757.34375 C 1027.582031 758.054688 1028.875 758.828125 1030.128906 759.664062 C 1031.382812 760.503906 1032.59375 761.402344 1033.757812 762.359375 C 1034.925781 763.3125 1036.039062 764.324219 1037.105469 765.390625 C 1038.171875 766.457031 1039.183594 767.574219 1040.140625 768.742188 C 1041.097656 769.90625 1041.996094 771.117188 1042.832031 772.371094 C 1043.671875 773.625 1044.445312 774.914062 1045.15625 776.246094 C 1045.867188 777.574219 1046.511719 778.9375 1047.085938 780.328125 C 1047.664062 781.722656 1048.171875 783.140625 1048.609375 784.585938 C 1049.046875 786.027344 1049.414062 787.488281 1049.707031 788.96875 C 1050.003906 790.445312 1050.222656 791.9375 1050.371094 793.4375 C 1050.519531 794.9375 1050.59375 796.441406 1050.59375 797.949219 C 1050.59375 798.6875 1050.59375 799.425781 1050.59375 800.171875 C 1050.5625 805.691406 1050.398438 811.210938 1050.097656 816.722656 C 1049.796875 822.234375 1049.359375 827.734375 1048.789062 833.226562 C 1048.222656 838.71875 1047.515625 844.191406 1046.679688 849.648438 C 1045.839844 855.105469 1044.871094 860.539062 1043.765625 865.945312 C 1042.664062 871.355469 1041.429688 876.734375 1040.0625 882.082031 C 1038.695312 887.429688 1037.195312 892.742188 1035.570312 898.019531 C 1033.941406 903.292969 1032.1875 908.527344 1030.304688 913.714844 C 1028.421875 918.90625 1026.414062 924.046875 1024.277344 929.136719 C 1022.144531 934.226562 1019.886719 939.261719 1017.503906 944.242188 C 1015.121094 949.226562 1012.621094 954.144531 1010 959.003906 C 1007.375 963.859375 1004.636719 968.652344 1001.78125 973.375 C 998.925781 978.097656 995.953125 982.75 992.871094 987.328125 C 989.785156 991.90625 986.589844 996.40625 983.285156 1000.832031 C 979.980469 1005.253906 976.570312 1009.589844 973.054688 1013.847656 C 969.535156 1018.101562 965.917969 1022.269531 962.195312 1026.347656 C 958.476562 1030.425781 954.65625 1034.410156 950.742188 1038.300781 C 946.824219 1042.191406 942.816406 1045.984375 938.714844 1049.679688 C 934.613281 1053.375 930.421875 1056.964844 926.144531 1060.457031 C 921.867188 1063.945312 917.507812 1067.328125 913.066406 1070.605469 C 908.621094 1073.882812 904.101562 1077.046875 899.503906 1080.101562 C 894.90625 1083.15625 890.234375 1086.097656 885.492188 1088.925781 C 880.75 1091.753906 875.941406 1094.460938 871.066406 1097.050781 C 866.191406 1099.644531 861.257812 1102.113281 856.261719 1104.464844 C 851.265625 1106.8125 846.21875 1109.039062 841.113281 1111.140625 C 836.007812 1113.242188 830.855469 1115.21875 825.652344 1117.070312 C 820.453125 1118.917969 815.207031 1120.640625 809.921875 1122.234375 C 804.636719 1123.828125 799.316406 1125.292969 793.960938 1126.625 C 788.601562 1127.957031 783.214844 1129.160156 777.800781 1130.226562 C 772.382812 1131.296875 766.945312 1132.234375 761.484375 1133.035156 C 756.019531 1133.839844 750.542969 1134.507812 745.046875 1135.042969 C 739.554688 1135.578125 734.050781 1135.976562 728.535156 1136.242188 C 723.019531 1136.507812 717.503906 1136.640625 711.984375 1136.632812 Z M 711.984375 1136.632812 " fill-opacity="1" fill-rule="nonzero"/></g><g clip-path="url(#305a928bde)"><path fill="#bbac93" d="M 711.984375 1136.632812 C 706.441406 1136.632812 700.902344 1136.5 695.367188 1136.226562 C 689.828125 1135.953125 684.304688 1135.546875 678.789062 1135.003906 C 673.273438 1134.460938 667.773438 1133.78125 662.289062 1132.96875 C 656.808594 1132.15625 651.347656 1131.207031 645.914062 1130.128906 C 640.476562 1129.046875 635.070312 1127.832031 629.695312 1126.484375 C 624.316406 1125.136719 618.976562 1123.660156 613.671875 1122.050781 C 608.371094 1120.441406 603.109375 1118.703125 597.890625 1116.835938 C 592.671875 1114.96875 587.503906 1112.976562 582.382812 1110.855469 C 577.261719 1108.734375 572.195312 1106.488281 567.183594 1104.117188 C 562.175781 1101.75 557.226562 1099.257812 552.335938 1096.644531 C 547.449219 1094.03125 542.628906 1091.300781 537.875 1088.453125 C 533.121094 1085.601562 528.4375 1082.636719 523.832031 1079.558594 C 519.222656 1076.480469 514.691406 1073.289062 510.242188 1069.988281 C 505.789062 1066.6875 501.421875 1063.277344 497.136719 1059.761719 C 492.851562 1056.246094 488.65625 1052.625 484.550781 1048.902344 C 480.441406 1045.179688 476.429688 1041.359375 472.511719 1037.441406 C 468.589844 1033.523438 464.769531 1029.507812 461.046875 1025.402344 C 457.328125 1021.296875 453.707031 1017.101562 450.191406 1012.816406 C 446.675781 1008.53125 443.265625 1004.164062 439.964844 999.710938 C 436.664062 995.261719 433.472656 990.730469 430.394531 986.121094 C 427.3125 981.511719 424.347656 976.832031 421.5 972.078125 C 418.652344 967.324219 415.917969 962.503906 413.308594 957.613281 C 410.695312 952.726562 408.203125 947.777344 405.832031 942.765625 C 403.464844 937.757812 401.21875 932.691406 399.097656 927.570312 C 396.976562 922.449219 394.980469 917.28125 393.113281 912.0625 C 391.246094 906.84375 389.507812 901.582031 387.902344 896.277344 C 386.292969 890.972656 384.8125 885.632812 383.46875 880.257812 C 382.121094 874.882812 380.90625 869.476562 379.824219 864.039062 C 378.742188 858.601562 377.796875 853.144531 376.984375 847.660156 C 376.171875 842.179688 375.492188 836.679688 374.949219 831.164062 C 374.40625 825.648438 373.996094 820.121094 373.726562 814.585938 C 373.453125 809.050781 373.316406 803.511719 373.316406 797.96875 C 373.296875 796.449219 373.351562 794.929688 373.480469 793.414062 C 373.609375 791.894531 373.8125 790.390625 374.089844 788.894531 C 374.367188 787.398438 374.71875 785.917969 375.144531 784.457031 C 375.570312 782.996094 376.066406 781.558594 376.632812 780.148438 C 377.199219 778.738281 377.835938 777.355469 378.539062 776.007812 C 379.242188 774.65625 380.011719 773.347656 380.847656 772.074219 C 381.679688 770.800781 382.574219 769.574219 383.53125 768.390625 C 384.488281 767.207031 385.5 766.070312 386.566406 764.988281 C 387.636719 763.90625 388.753906 762.875 389.925781 761.902344 C 391.097656 760.929688 392.3125 760.019531 393.574219 759.167969 C 394.832031 758.3125 396.132812 757.527344 397.472656 756.804688 C 398.808594 756.078125 400.183594 755.425781 401.585938 754.835938 C 402.988281 754.25 404.417969 753.734375 405.875 753.289062 C 407.328125 752.84375 408.800781 752.46875 410.292969 752.171875 C 411.785156 751.871094 413.289062 751.644531 414.804688 751.496094 C 416.316406 751.34375 417.835938 751.269531 419.355469 751.269531 C 420.878906 751.269531 422.398438 751.34375 423.910156 751.496094 C 425.425781 751.644531 426.929688 751.871094 428.421875 752.171875 C 429.914062 752.46875 431.386719 752.84375 432.839844 753.289062 C 434.296875 753.734375 435.726562 754.25 437.128906 754.835938 C 438.53125 755.425781 439.902344 756.078125 441.242188 756.804688 C 442.582031 757.527344 443.882812 758.3125 445.140625 759.167969 C 446.402344 760.019531 447.617188 760.929688 448.789062 761.902344 C 449.957031 762.875 451.078125 763.90625 452.144531 764.988281 C 453.214844 766.070312 454.226562 767.207031 455.183594 768.390625 C 456.136719 769.574219 457.035156 770.800781 457.867188 772.074219 C 458.703125 773.347656 459.472656 774.65625 460.175781 776.007812 C 460.878906 777.355469 461.515625 778.738281 462.082031 780.148438 C 462.648438 781.558594 463.144531 782.996094 463.570312 784.457031 C 463.996094 785.917969 464.347656 787.398438 464.625 788.894531 C 464.902344 790.390625 465.105469 791.894531 465.234375 793.414062 C 465.363281 794.929688 465.417969 796.449219 465.398438 797.96875 C 465.398438 933.9375 576.015625 1044.546875 711.984375 1044.546875 C 716.550781 1044.554688 721.117188 1044.433594 725.679688 1044.1875 C 730.238281 1043.9375 734.789062 1043.5625 739.332031 1043.0625 C 743.871094 1042.5625 748.394531 1041.933594 752.902344 1041.179688 C 757.40625 1040.429688 761.886719 1039.550781 766.34375 1038.546875 C 770.800781 1037.542969 775.226562 1036.417969 779.621094 1035.167969 C 784.015625 1033.917969 788.371094 1032.546875 792.6875 1031.050781 C 797.007812 1029.558594 801.277344 1027.949219 805.507812 1026.21875 C 809.734375 1024.484375 813.910156 1022.640625 818.035156 1020.675781 C 822.160156 1018.710938 826.226562 1016.632812 830.234375 1014.445312 C 834.246094 1012.253906 838.1875 1009.953125 842.070312 1007.542969 C 845.949219 1005.132812 849.761719 1002.613281 853.5 999.992188 C 857.242188 997.371094 860.90625 994.644531 864.496094 991.816406 C 868.082031 988.988281 871.589844 986.066406 875.015625 983.042969 C 878.441406 980.019531 881.777344 976.902344 885.03125 973.695312 C 888.28125 970.484375 891.441406 967.1875 894.507812 963.804688 C 897.578125 960.417969 900.546875 956.953125 903.421875 953.402344 C 907.828125 948.015625 911.996094 942.449219 915.925781 936.707031 C 919.855469 930.964844 923.53125 925.066406 926.953125 919.007812 C 930.378906 912.949219 933.539062 906.757812 936.429688 900.429688 C 939.324219 894.101562 941.941406 887.660156 944.285156 881.109375 C 946.625 874.554688 948.683594 867.917969 950.457031 861.1875 C 952.230469 854.460938 953.710938 847.667969 954.902344 840.8125 C 956.09375 833.957031 956.992188 827.0625 957.59375 820.128906 C 958.195312 813.199219 958.496094 806.253906 958.503906 799.292969 C 958.503906 798.988281 958.503906 798.6875 958.503906 798.359375 L 958.503906 797.949219 C 958.503906 796.441406 958.578125 794.9375 958.726562 793.4375 C 958.875 791.9375 959.09375 790.445312 959.390625 788.96875 C 959.683594 787.488281 960.050781 786.027344 960.488281 784.585938 C 960.925781 783.140625 961.433594 781.722656 962.007812 780.328125 C 962.585938 778.9375 963.230469 777.574219 963.941406 776.246094 C 964.652344 774.914062 965.425781 773.625 966.265625 772.371094 C 967.101562 771.117188 968 769.90625 968.957031 768.742188 C 969.914062 767.574219 970.925781 766.457031 971.992188 765.390625 C 973.054688 764.324219 974.171875 763.3125 975.339844 762.359375 C 976.503906 761.402344 977.714844 760.503906 978.96875 759.664062 C 980.222656 758.828125 981.511719 758.054688 982.84375 757.34375 C 984.171875 756.632812 985.535156 755.988281 986.929688 755.410156 C 988.320312 754.835938 989.738281 754.328125 991.183594 753.890625 C 992.625 753.449219 994.085938 753.085938 995.566406 752.789062 C 997.042969 752.496094 998.535156 752.277344 1000.035156 752.128906 C 1001.535156 751.980469 1003.039062 751.90625 1004.546875 751.90625 C 1006.054688 751.90625 1007.5625 751.980469 1009.0625 752.128906 C 1010.5625 752.277344 1012.050781 752.496094 1013.53125 752.789062 C 1015.011719 753.085938 1016.472656 753.449219 1017.914062 753.890625 C 1019.355469 754.328125 1020.777344 754.835938 1022.167969 755.410156 C 1023.5625 755.988281 1024.921875 756.632812 1026.253906 757.34375 C 1027.582031 758.054688 1028.875 758.828125 1030.128906 759.664062 C 1031.382812 760.503906 1032.59375 761.402344 1033.757812 762.359375 C 1034.925781 763.3125 1036.039062 764.324219 1037.105469 765.390625 C 1038.171875 766.457031 1039.183594 767.574219 1040.140625 768.742188 C 1041.097656 769.90625 1041.996094 771.117188 1042.832031 772.371094 C 1043.671875 773.625 1044.445312 774.914062 1045.15625 776.246094 C 1045.867188 777.574219 1046.511719 778.9375 1047.085938 780.328125 C 1047.664062 781.722656 1048.171875 783.140625 1048.609375 784.585938 C 1049.046875 786.027344 1049.414062 787.488281 1049.707031 788.96875 C 1050.003906 790.445312 1050.222656 791.9375 1050.371094 793.4375 C 1050.519531 794.9375 1050.59375 796.441406 1050.59375 797.949219 C 1050.59375 798.6875 1050.59375 799.425781 1050.59375 800.171875 C 1050.5625 805.691406 1050.398438 811.210938 1050.097656 816.722656 C 1049.796875 822.234375 1049.359375 827.734375 1048.789062 833.226562 C 1048.222656 838.71875 1047.515625 844.191406 1046.679688 849.648438 C 1045.839844 855.105469 1044.871094 860.539062 1043.765625 865.945312 C 1042.664062 871.355469 1041.429688 876.734375 1040.0625 882.082031 C 1038.695312 887.429688 1037.195312 892.742188 1035.570312 898.019531 C 1033.941406 903.292969 1032.1875 908.527344 1030.304688 913.714844 C 1028.421875 918.90625 1026.414062 924.046875 1024.277344 929.136719 C 1022.144531 934.226562 1019.886719 939.261719 1017.503906 944.242188 C 1015.121094 949.226562 1012.621094 954.144531 1010 959.003906 C 1007.375 963.859375 1004.636719 968.652344 1001.78125 973.375 C 998.925781 978.097656 995.953125 982.75 992.871094 987.328125 C 989.785156 991.90625 986.589844 996.40625 983.285156 1000.832031 C 979.980469 1005.253906 976.570312 1009.589844 973.054688 1013.847656 C 969.535156 1018.101562 965.917969 1022.269531 962.195312 1026.347656 C 958.476562 1030.425781 954.65625 1034.410156 950.742188 1038.300781 C 946.824219 1042.191406 942.816406 1045.984375 938.714844 1049.679688 C 934.613281 1053.375 930.421875 1056.964844 926.144531 1060.457031 C 921.867188 1063.945312 917.507812 1067.328125 913.066406 1070.605469 C 908.621094 1073.882812 904.101562 1077.046875 899.503906 1080.101562 C 894.90625 1083.15625 890.234375 1086.097656 885.492188 1088.925781 C 880.75 1091.753906 875.941406 1094.460938 871.066406 1097.050781 C 866.191406 1099.644531 861.257812 1102.113281 856.261719 1104.464844 C 851.265625 1106.8125 846.21875 1109.039062 841.113281 1111.140625 C 836.007812 1113.242188 830.855469 1115.21875 825.652344 1117.070312 C 820.453125 1118.917969 815.207031 1120.640625 809.921875 1122.234375 C 804.636719 1123.828125 799.316406 1125.292969 793.960938 1126.625 C 788.601562 1127.957031 783.214844 1129.160156 777.800781 1130.226562 C 772.382812 1131.296875 766.945312 1132.234375 761.484375 1133.035156 C 756.019531 1133.839844 750.542969 1134.507812 745.046875 1135.042969 C 739.554688 1135.578125 734.050781 1135.976562 728.535156 1136.242188 C 723.019531 1136.507812 717.503906 1136.640625 711.984375 1136.632812 Z M 711.984375 1136.632812 " fill-opacity="1" fill-rule="nonzero"/></g><g clip-path="url(#e59fa37503)"><path fill="#d9cfbc" d="M 711.984375 1136.632812 C 710.476562 1136.632812 708.972656 1136.5625 707.46875 1136.414062 C 705.96875 1136.265625 704.480469 1136.042969 703 1135.75 C 701.519531 1135.457031 700.058594 1135.089844 698.617188 1134.652344 C 697.175781 1134.214844 695.757812 1133.707031 694.363281 1133.128906 C 692.96875 1132.550781 691.609375 1131.910156 690.277344 1131.199219 C 688.949219 1130.488281 687.65625 1129.710938 686.402344 1128.875 C 685.148438 1128.035156 683.9375 1127.140625 682.773438 1126.183594 C 681.609375 1125.226562 680.492188 1124.214844 679.425781 1123.148438 C 678.359375 1122.082031 677.347656 1120.964844 676.390625 1119.800781 C 675.433594 1118.632812 674.535156 1117.425781 673.699219 1116.171875 C 672.859375 1114.917969 672.085938 1113.625 671.375 1112.296875 C 670.664062 1110.964844 670.019531 1109.605469 669.445312 1108.210938 C 668.867188 1106.816406 668.359375 1105.398438 667.921875 1103.957031 C 667.484375 1102.511719 667.117188 1101.050781 666.824219 1099.574219 C 666.53125 1098.09375 666.308594 1096.605469 666.160156 1095.101562 C 666.011719 1093.601562 665.9375 1092.097656 665.9375 1090.589844 C 665.9375 1089.082031 666.011719 1087.578125 666.160156 1086.078125 C 666.308594 1084.578125 666.53125 1083.085938 666.824219 1081.609375 C 667.117188 1080.128906 667.484375 1078.667969 667.921875 1077.222656 C 668.359375 1075.78125 668.867188 1074.363281 669.445312 1072.96875 C 670.019531 1071.578125 670.664062 1070.214844 671.375 1068.886719 C 672.085938 1067.554688 672.859375 1066.261719 673.699219 1065.007812 C 674.535156 1063.753906 675.433594 1062.546875 676.390625 1061.378906 C 677.347656 1060.214844 678.359375 1059.097656 679.425781 1058.03125 C 680.492188 1056.964844 681.605469 1055.953125 682.773438 1054.996094 C 683.9375 1054.039062 685.148438 1053.144531 686.402344 1052.304688 C 687.65625 1051.46875 688.949219 1050.695312 690.277344 1049.984375 C 691.609375 1049.273438 692.96875 1048.628906 694.363281 1048.050781 C 695.757812 1047.472656 697.175781 1046.964844 698.617188 1046.527344 C 700.058594 1046.089844 701.519531 1045.726562 703 1045.429688 C 704.480469 1045.136719 705.96875 1044.914062 707.46875 1044.769531 C 708.972656 1044.621094 710.476562 1044.546875 711.984375 1044.546875 C 716.550781 1044.554688 721.117188 1044.433594 725.679688 1044.1875 C 730.238281 1043.9375 734.789062 1043.5625 739.332031 1043.0625 C 743.871094 1042.5625 748.394531 1041.933594 752.902344 1041.179688 C 757.40625 1040.429688 761.886719 1039.550781 766.34375 1038.546875 C 770.800781 1037.542969 775.226562 1036.417969 779.621094 1035.167969 C 784.015625 1033.917969 788.371094 1032.546875 792.6875 1031.050781 C 797.007812 1029.558594 801.277344 1027.949219 805.507812 1026.21875 C 809.734375 1024.484375 813.910156 1022.640625 818.035156 1020.675781 C 822.160156 1018.710938 826.226562 1016.632812 830.234375 1014.445312 C 834.246094 1012.253906 838.1875 1009.953125 842.070312 1007.542969 C 845.949219 1005.132812 849.761719 1002.613281 853.5 999.992188 C 857.242188 997.371094 860.90625 994.644531 864.496094 991.816406 C 868.082031 988.988281 871.589844 986.066406 875.015625 983.042969 C 878.441406 980.019531 881.777344 976.902344 885.03125 973.695312 C 888.28125 970.484375 891.441406 967.1875 894.507812 963.804688 C 897.578125 960.417969 900.546875 956.953125 903.421875 953.402344 C 907.828125 948.015625 911.996094 942.449219 915.925781 936.707031 C 919.855469 930.964844 923.53125 925.066406 926.953125 919.007812 C 930.378906 912.949219 933.539062 906.757812 936.429688 900.429688 C 939.324219 894.101562 941.941406 887.660156 944.285156 881.109375 C 946.625 874.554688 948.683594 867.917969 950.457031 861.1875 C 952.230469 854.460938 953.710938 847.667969 954.902344 840.8125 C 956.09375 833.957031 956.992188 827.0625 957.59375 820.128906 C 958.195312 813.199219 958.496094 806.253906 958.503906 799.292969 C 958.503906 798.988281 958.503906 798.6875 958.503906 798.359375 L 958.503906 797.949219 C 958.503906 796.441406 958.578125 794.9375 958.726562 793.4375 C 958.875 791.9375 959.09375 790.445312 959.390625 788.96875 C 959.683594 787.488281 960.050781 786.027344 960.488281 784.585938 C 960.925781 783.140625 961.433594 781.722656 962.007812 780.328125 C 962.585938 778.9375 963.230469 777.574219 963.941406 776.246094 C 964.652344 774.914062 965.425781 773.625 966.265625 772.371094 C 967.101562 771.117188 968 769.90625 968.957031 768.742188 C 969.914062 767.574219 970.925781 766.457031 971.992188 765.390625 C 973.054688 764.324219 974.171875 763.3125 975.339844 762.359375 C 976.503906 761.402344 977.714844 760.503906 978.96875 759.664062 C 980.222656 758.828125 981.511719 758.054688 982.84375 757.34375 C 984.171875 756.632812 985.535156 755.988281 986.929688 755.410156 C 988.320312 754.835938 989.738281 754.328125 991.183594 753.890625 C 992.625 753.449219 994.085938 753.085938 995.566406 752.789062 C 997.042969 752.496094 998.535156 752.277344 1000.035156 752.128906 C 1001.535156 751.980469 1003.039062 751.90625 1004.546875 751.90625 C 1006.054688 751.90625 1007.5625 751.980469 1009.0625 752.128906 C 1010.5625 752.277344 1012.050781 752.496094 1013.53125 752.789062 C 1015.011719 753.085938 1016.472656 753.449219 1017.914062 753.890625 C 1019.355469 754.328125 1020.777344 754.835938 1022.167969 755.410156 C 1023.5625 755.988281 1024.921875 756.632812 1026.253906 757.34375 C 1027.582031 758.054688 1028.875 758.828125 1030.128906 759.664062 C 1031.382812 760.503906 1032.59375 761.402344 1033.757812 762.359375 C 1034.925781 763.3125 1036.039062 764.324219 1037.105469 765.390625 C 1038.171875 766.457031 1039.183594 767.574219 1040.140625 768.742188 C 1041.097656 769.90625 1041.996094 771.117188 1042.832031 772.371094 C 1043.671875 773.625 1044.445312 774.914062 1045.15625 776.246094 C 1045.867188 777.574219 1046.511719 778.9375 1047.085938 780.328125 C 1047.664062 781.722656 1048.171875 783.140625 1048.609375 784.585938 C 1049.046875 786.027344 1049.414062 787.488281 1049.707031 788.96875 C 1050.003906 790.445312 1050.222656 791.9375 1050.371094 793.4375 C 1050.519531 794.9375 1050.59375 796.441406 1050.59375 797.949219 C 1050.59375 798.6875 1050.59375 799.425781 1050.59375 800.164062 C 1050.5625 805.683594 1050.398438 811.199219 1050.097656 816.710938 C 1049.796875 822.226562 1049.363281 827.726562 1048.792969 833.21875 C 1048.222656 838.710938 1047.519531 844.183594 1046.679688 849.640625 C 1045.84375 855.097656 1044.871094 860.53125 1043.769531 865.9375 C 1042.664062 871.347656 1041.429688 876.726562 1040.0625 882.074219 C 1038.695312 887.425781 1037.199219 892.734375 1035.574219 898.011719 C 1033.945312 903.289062 1032.191406 908.519531 1030.308594 913.710938 C 1028.425781 918.898438 1026.414062 924.039062 1024.28125 929.128906 C 1022.144531 934.222656 1019.886719 939.257812 1017.507812 944.238281 C 1015.125 949.21875 1012.625 954.136719 1010 958.996094 C 1007.378906 963.855469 1004.640625 968.644531 1001.785156 973.371094 C 998.925781 978.09375 995.957031 982.746094 992.871094 987.324219 C 989.789062 991.902344 986.59375 996.402344 983.289062 1000.824219 C 979.984375 1005.246094 976.574219 1009.585938 973.058594 1013.84375 C 969.539062 1018.097656 965.921875 1022.265625 962.199219 1026.34375 C 958.480469 1030.421875 954.660156 1034.40625 950.746094 1038.296875 C 946.828125 1042.1875 942.820312 1045.980469 938.71875 1049.675781 C 934.617188 1053.371094 930.425781 1056.964844 926.148438 1060.453125 C 921.871094 1063.945312 917.511719 1067.328125 913.066406 1070.601562 C 908.625 1073.878906 904.105469 1077.046875 899.507812 1080.101562 C 894.90625 1083.15625 890.238281 1086.097656 885.496094 1088.921875 C 880.753906 1091.75 875.945312 1094.460938 871.070312 1097.050781 C 866.195312 1099.640625 861.261719 1102.113281 856.265625 1104.460938 C 851.269531 1106.8125 846.21875 1109.039062 841.113281 1111.140625 C 836.011719 1113.242188 830.855469 1115.21875 825.65625 1117.070312 C 820.453125 1118.917969 815.210938 1120.640625 809.925781 1122.234375 C 804.640625 1123.828125 799.316406 1125.292969 793.960938 1126.625 C 788.601562 1127.957031 783.214844 1129.15625 777.800781 1130.226562 C 772.382812 1131.296875 766.945312 1132.234375 761.484375 1133.035156 C 756.023438 1133.839844 750.542969 1134.507812 745.050781 1135.042969 C 739.554688 1135.578125 734.050781 1135.976562 728.535156 1136.242188 C 723.019531 1136.507812 717.503906 1136.640625 711.984375 1136.632812 Z M 711.984375 1136.632812 " fill-opacity="1" fill-rule="nonzero"/></g><path fill="#f8f1e5" d="M 671.355469 911.828125 C 668.28125 911.832031 665.238281 911.53125 662.222656 910.921875 C 659.210938 910.316406 656.289062 909.414062 653.457031 908.222656 C 650.625 907.027344 647.941406 905.5625 645.402344 903.832031 C 642.863281 902.097656 640.523438 900.128906 638.378906 897.925781 L 571.757812 829.578125 C 570.707031 828.5 569.710938 827.371094 568.769531 826.195312 C 567.828125 825.015625 566.945312 823.796875 566.125 822.53125 C 565.300781 821.265625 564.542969 819.964844 563.851562 818.625 C 563.15625 817.285156 562.53125 815.917969 561.972656 814.515625 C 561.414062 813.117188 560.925781 811.691406 560.503906 810.242188 C 560.085938 808.796875 559.738281 807.332031 559.464844 805.847656 C 559.1875 804.363281 558.984375 802.871094 558.859375 801.371094 C 558.730469 799.867188 558.675781 798.363281 558.695312 796.855469 C 558.714844 795.347656 558.804688 793.84375 558.972656 792.347656 C 559.140625 790.847656 559.378906 789.359375 559.695312 787.886719 C 560.007812 786.410156 560.390625 784.953125 560.847656 783.519531 C 561.304688 782.082031 561.828125 780.667969 562.425781 779.285156 C 563.019531 777.898438 563.679688 776.546875 564.410156 775.222656 C 565.136719 773.902344 565.925781 772.621094 566.78125 771.378906 C 567.632812 770.136719 568.546875 768.9375 569.519531 767.785156 C 570.488281 766.632812 571.515625 765.53125 572.59375 764.476562 C 573.675781 763.425781 574.804688 762.425781 575.980469 761.484375 C 577.160156 760.542969 578.378906 759.664062 579.644531 758.839844 C 580.910156 758.019531 582.210938 757.261719 583.550781 756.570312 C 584.886719 755.875 586.257812 755.25 587.65625 754.6875 C 589.058594 754.128906 590.484375 753.640625 591.929688 753.222656 C 593.378906 752.804688 594.84375 752.457031 596.328125 752.179688 C 597.808594 751.90625 599.300781 751.703125 600.804688 751.574219 C 602.308594 751.445312 603.8125 751.390625 605.320312 751.410156 C 606.828125 751.429688 608.332031 751.523438 609.828125 751.691406 C 611.328125 751.859375 612.8125 752.097656 614.289062 752.410156 C 615.765625 752.722656 617.21875 753.109375 618.65625 753.566406 C 620.09375 754.019531 621.507812 754.546875 622.890625 755.140625 C 624.277344 755.738281 625.628906 756.398438 626.949219 757.125 C 628.269531 757.851562 629.554688 758.644531 630.796875 759.496094 C 632.039062 760.351562 633.238281 761.265625 634.390625 762.234375 C 635.542969 763.207031 636.644531 764.234375 637.699219 765.3125 L 674.761719 803.328125 L 806.808594 694.566406 C 807.972656 693.605469 809.179688 692.707031 810.433594 691.867188 C 811.6875 691.027344 812.976562 690.25 814.308594 689.535156 C 815.636719 688.824219 816.996094 688.175781 818.390625 687.597656 C 819.785156 687.019531 821.203125 686.507812 822.644531 686.070312 C 824.089844 685.628906 825.550781 685.261719 827.027344 684.964844 C 828.507812 684.667969 829.996094 684.445312 831.5 684.292969 C 833 684.144531 834.503906 684.066406 836.015625 684.066406 C 837.523438 684.0625 839.027344 684.136719 840.53125 684.28125 C 842.03125 684.425781 843.523438 684.644531 845 684.9375 C 846.480469 685.230469 847.945312 685.59375 849.386719 686.03125 C 850.832031 686.46875 852.253906 686.972656 853.648438 687.550781 C 855.042969 688.125 856.402344 688.765625 857.734375 689.476562 C 859.066406 690.1875 860.359375 690.960938 861.617188 691.796875 C 862.871094 692.632812 864.082031 693.527344 865.25 694.484375 C 866.417969 695.441406 867.535156 696.449219 868.601562 697.515625 C 869.671875 698.582031 870.683594 699.695312 871.644531 700.863281 C 872.601562 702.027344 873.5 703.238281 874.339844 704.492188 C 875.179688 705.742188 875.957031 707.035156 876.667969 708.367188 C 877.378906 709.695312 878.027344 711.054688 878.605469 712.449219 C 879.183594 713.84375 879.691406 715.261719 880.132812 716.703125 C 880.570312 718.148438 880.9375 719.609375 881.234375 721.089844 C 881.53125 722.566406 881.753906 724.058594 881.902344 725.558594 C 882.050781 727.0625 882.125 728.566406 882.128906 730.074219 C 882.128906 731.582031 882.058594 733.089844 881.910156 734.589844 C 881.765625 736.089844 881.542969 737.582031 881.25 739.0625 C 880.957031 740.542969 880.59375 742.003906 880.15625 743.449219 C 879.71875 744.890625 879.210938 746.3125 878.636719 747.707031 C 878.058594 749.101562 877.417969 750.460938 876.707031 751.792969 C 875.996094 753.125 875.222656 754.417969 874.386719 755.671875 C 873.546875 756.929688 872.652344 758.140625 871.695312 759.304688 C 870.738281 760.472656 869.726562 761.589844 868.660156 762.65625 C 867.597656 763.726562 866.480469 764.738281 865.3125 765.695312 L 700.613281 901.324219 C 698.570312 903.011719 696.398438 904.511719 694.09375 905.824219 C 691.792969 907.132812 689.394531 908.234375 686.898438 909.132812 C 684.40625 910.027344 681.855469 910.699219 679.242188 911.152344 C 676.632812 911.605469 674.003906 911.832031 671.355469 911.828125 Z M 671.355469 911.828125 " fill-opacity="1" fill-rule="nonzero"/><g clip-path="url(#afa9d349e9)"><g clip-path="url(#a6c507f225)"><g clip-path="url(#327aa8d611)"><path fill="#f8f1e5" d="M 310.171875 623.582031 C 309.84375 622.941406 309.445312 620.757812 309.285156 618.734375 C 309.121094 616.714844 307.886719 610.851562 306.550781 605.726562 C 305.214844 600.601562 303.558594 594.246094 302.867188 591.597656 C 299.460938 578.441406 291.445312 567.707031 282.542969 564.386719 C 277.515625 562.511719 268.378906 560.804688 266.414062 561.382812 C 265.667969 561.601562 262.773438 562.128906 259.988281 562.546875 C 257.203125 562.96875 252.269531 564 249.019531 564.832031 C 245.765625 565.664062 242.832031 566.410156 242.480469 566.496094 C 242.132812 566.578125 241.800781 566.210938 241.757812 565.671875 C 241.65625 564.40625 247.84375 562.273438 259.222656 559.644531 C 266.472656 557.980469 268.535156 557.226562 272.175781 554.925781 C 277.070312 551.828125 281.460938 547.476562 283.859375 543.335938 C 284.757812 541.792969 286.199219 537.160156 287.078125 533.023438 C 288.542969 526.085938 288.609375 524.808594 287.953125 516.066406 C 287.5625 510.863281 286.5 502.152344 285.589844 496.695312 C 284.679688 491.234375 284.140625 486.617188 284.390625 486.429688 C 284.644531 486.242188 285.023438 486.757812 285.246094 487.570312 C 285.675781 489.152344 289.246094 501.730469 292.707031 513.839844 C 295.191406 522.554688 299.003906 531.800781 301.675781 535.625 C 303.945312 538.867188 308.710938 542.703125 312.257812 544.148438 C 317.921875 546.445312 319.628906 546.546875 328.261719 545.082031 C 347.660156 541.773438 352.453125 541.054688 352.832031 541.378906 C 354.050781 542.410156 348.785156 544.050781 335.949219 546.636719 C 331.683594 547.503906 326.980469 548.734375 325.511719 549.402344 C 316.839844 553.261719 309.554688 563.496094 307.027344 575.425781 C 305.324219 583.445312 305.183594 588.683594 306.542969 593.992188 C 309.058594 603.839844 311.890625 626.992188 310.167969 623.59375 Z M 339.738281 528.136719 C 339.992188 528.925781 340.636719 529.539062 341.164062 529.496094 C 341.96875 529.433594 342.007812 527.929688 341.429688 520.457031 C 340.828125 512.722656 340.894531 511.003906 341.894531 507.863281 C 343.574219 502.621094 344.847656 501.78125 354.542969 499.519531 C 364.03125 497.300781 365.097656 496.9375 365.023438 495.984375 C 364.980469 495.507812 363.707031 495.574219 360.945312 496.1875 C 354.015625 497.726562 349.453125 497.730469 345.695312 496.171875 C 339.523438 493.636719 337.523438 490.851562 334.601562 480.722656 C 331.277344 469.203125 330.914062 469.410156 331.582031 482.433594 C 332.367188 497.792969 331.089844 499.542969 316.132812 503.609375 C 310.003906 505.277344 306.859375 506.535156 306.921875 507.292969 C 306.941406 507.550781 312.054688 507.328125 318.289062 506.800781 C 329.527344 505.835938 329.652344 505.84375 331.507812 507.324219 C 334.597656 509.765625 336.371094 513.355469 337.863281 520.230469 C 338.648438 523.785156 339.492188 527.34375 339.742188 528.136719 Z M 339.738281 528.136719 " fill-opacity="1" fill-rule="nonzero"/></g></g></g><g clip-path="url(#261d05a46b)"><path fill="#f8f1e5" d="M 1120.503906 1207.453125 C 1120.28125 1206.546875 1120.425781 1203.660156 1120.816406 1201.050781 C 1121.210938 1198.441406 1121.386719 1190.648438 1121.210938 1183.757812 C 1121.039062 1176.871094 1120.820312 1168.324219 1120.730469 1164.765625 C 1120.3125 1147.085938 1113.339844 1131.113281 1103.042969 1124.265625 C 1097.230469 1120.402344 1086.160156 1115.53125 1083.503906 1115.679688 C 1082.488281 1115.738281 1078.667969 1115.546875 1075.015625 1115.253906 C 1071.363281 1114.957031 1064.804688 1114.804688 1060.4375 1114.894531 C 1056.074219 1114.984375 1052.132812 1115.0625 1051.664062 1115.0625 C 1051.195312 1115.066406 1050.886719 1114.5 1050.992188 1113.804688 C 1051.238281 1112.175781 1059.710938 1111.308594 1074.90625 1111.347656 C 1084.585938 1111.386719 1087.421875 1111.042969 1092.714844 1109.207031 C 1099.832031 1106.730469 1106.6875 1102.519531 1110.953125 1097.984375 C 1112.550781 1096.296875 1115.75 1090.855469 1118.085938 1085.875 C 1121.996094 1077.519531 1122.460938 1075.921875 1124.222656 1064.648438 C 1125.265625 1057.945312 1126.503906 1046.589844 1126.96875 1039.40625 C 1127.429688 1032.21875 1128.117188 1026.207031 1128.492188 1026.042969 C 1128.867188 1025.878906 1129.195312 1026.652344 1129.234375 1027.742188 C 1129.308594 1029.878906 1130.109375 1046.867188 1130.902344 1063.238281 C 1131.46875 1075.015625 1133.558594 1087.859375 1135.8125 1093.496094 C 1137.722656 1098.277344 1142.625 1104.550781 1146.691406 1107.433594 C 1153.1875 1112.019531 1155.316406 1112.65625 1166.691406 1113.359375 C 1192.25 1114.914062 1198.53125 1115.421875 1198.917969 1115.945312 C 1200.15625 1117.613281 1193 1118.132812 1175.96875 1117.605469 C 1170.308594 1117.441406 1163.984375 1117.605469 1161.929688 1118.019531 C 1149.792969 1120.335938 1137.535156 1131.144531 1130.796875 1145.507812 C 1126.261719 1155.164062 1124.53125 1161.757812 1124.679688 1168.886719 C 1124.945312 1182.109375 1121.675781 1212.285156 1120.5 1207.46875 Z M 1186.253906 1095.289062 C 1186.339844 1096.363281 1186.976562 1097.335938 1187.660156 1097.4375 C 1188.695312 1097.59375 1189.191406 1095.703125 1190.671875 1086.0625 C 1192.199219 1076.085938 1192.796875 1073.925781 1194.992188 1070.242188 C 1198.675781 1064.101562 1200.539062 1063.414062 1213.488281 1063.421875 C 1226.171875 1063.421875 1227.625 1063.277344 1227.816406 1062.046875 C 1227.90625 1061.429688 1226.269531 1061.136719 1222.589844 1061.097656 C 1213.351562 1060.996094 1207.570312 1059.644531 1203.273438 1056.558594 C 1196.207031 1051.515625 1194.496094 1047.394531 1193.796875 1033.695312 C 1193 1018.117188 1192.476562 1018.269531 1189.464844 1034.964844 C 1185.90625 1054.660156 1183.769531 1056.496094 1163.613281 1057.21875 C 1155.355469 1057.515625 1151 1058.175781 1150.851562 1059.15625 C 1150.800781 1059.488281 1157.34375 1060.722656 1165.402344 1061.902344 C 1179.925781 1064.011719 1180.082031 1064.058594 1181.996094 1066.484375 C 1185.183594 1070.488281 1186.367188 1075.5625 1186.21875 1084.714844 C 1186.160156 1089.453125 1186.175781 1094.214844 1186.257812 1095.289062 Z M 1186.253906 1095.289062 " fill-opacity="1" fill-rule="nonzero"/></g><g fill="#f8f1e5" fill-opacity="1"><g transform="translate(220.199632, 319.673927)"><g><path d="M 5.3125 0 L 5.3125 -70.21875 L 34.3125 -70.21875 C 39.570312 -70.21875 44.113281 -69.191406 47.9375 -67.140625 C 51.769531 -65.097656 54.726562 -62.253906 56.8125 -58.609375 C 58.894531 -54.960938 59.9375 -50.726562 59.9375 -45.90625 C 59.9375 -41.0625 58.878906 -36.828125 56.765625 -33.203125 C 54.648438 -29.578125 51.632812 -26.769531 47.71875 -24.78125 C 43.8125 -22.800781 39.175781 -21.8125 33.8125 -21.8125 L 15.90625 -21.8125 L 15.90625 -35.171875 L 30.65625 -35.171875 C 33.207031 -35.171875 35.347656 -35.613281 37.078125 -36.5 C 38.804688 -37.394531 40.113281 -38.648438 41 -40.265625 C 41.894531 -41.878906 42.34375 -43.757812 42.34375 -45.90625 C 42.34375 -48.082031 41.894531 -49.960938 41 -51.546875 C 40.113281 -53.140625 38.800781 -54.367188 37.0625 -55.234375 C 35.320312 -56.097656 33.1875 -56.53125 30.65625 -56.53125 L 22.28125 -56.53125 L 22.28125 0 Z M 5.3125 0 "/></g></g></g><g fill="#f8f1e5" fill-opacity="1"><g transform="translate(274.711782, 319.673927)"><g><path d="M 20.5 0 L 2.265625 0 L 25.953125 -70.21875 L 48.546875 -70.21875 L 72.234375 0 L 54 0 L 37.515625 -52.53125 L 36.953125 -52.53125 Z M 18.0625 -27.640625 L 56.1875 -27.640625 L 56.1875 -14.75 L 18.0625 -14.75 Z M 18.0625 -27.640625 "/></g></g></g><g fill="#f8f1e5" fill-opacity="1"><g transform="translate(342.080713, 319.673927)"><g><path d="M 1.8125 -70.21875 L 20.78125 -70.21875 L 35.625 -40.828125 L 36.234375 -40.828125 L 51.078125 -70.21875 L 70.046875 -70.21875 L 44.359375 -23.453125 L 44.359375 0 L 27.5 0 L 27.5 -23.453125 Z M 1.8125 -70.21875 "/></g></g></g><g fill="#f8f1e5" fill-opacity="1"><g transform="translate(413.941226, 319.673927)"><g><path d="M 5.3125 -70.21875 L 26.328125 -70.21875 L 44.15625 -26.75 L 44.984375 -26.75 L 62.8125 -70.21875 L 83.828125 -70.21875 L 83.828125 0 L 67.296875 0 L 67.296875 -43.125 L 66.71875 -43.125 L 49.84375 -0.453125 L 39.296875 -0.453125 L 22.421875 -43.375 L 21.84375 -43.375 L 21.84375 0 L 5.3125 0 Z M 5.3125 -70.21875 "/></g></g></g><g fill="#f8f1e5" fill-opacity="1"><g transform="translate(503.081188, 319.673927)"><g><path d="M 5.3125 0 L 5.3125 -70.21875 L 54.265625 -70.21875 L 54.265625 -56.4375 L 22.28125 -56.4375 L 22.28125 -42.03125 L 51.765625 -42.03125 L 51.765625 -28.21875 L 22.28125 -28.21875 L 22.28125 -13.78125 L 54.265625 -13.78125 L 54.265625 0 Z M 5.3125 0 "/></g></g></g><g fill="#f8f1e5" fill-opacity="1"><g transform="translate(562.667824, 319.673927)"><g><path d="M 65.078125 -70.21875 L 65.078125 0 L 50.671875 0 L 22.734375 -40.53125 L 22.28125 -40.53125 L 22.28125 0 L 5.3125 0 L 5.3125 -70.21875 L 19.921875 -70.21875 L 47.546875 -29.765625 L 48.140625 -29.765625 L 48.140625 -70.21875 Z M 65.078125 -70.21875 "/></g></g></g><g fill="#f8f1e5" fill-opacity="1"><g transform="translate(633.05411, 319.673927)"><g><path d="M 3.015625 -56.4375 L 3.015625 -70.21875 L 62.359375 -70.21875 L 62.359375 -56.4375 L 41.078125 -56.4375 L 41.078125 0 L 24.34375 0 L 24.34375 -56.4375 Z M 3.015625 -56.4375 "/></g></g></g><g fill="#f8f1e5" fill-opacity="1"><g transform="translate(698.434844, 319.673927)"><g/></g></g><g fill="#f8f1e5" fill-opacity="1"><g transform="translate(719.211312, 319.673927)"><g><path d="M 43.265625 -49.171875 C 43.035156 -51.679688 42.023438 -53.640625 40.234375 -55.046875 C 38.441406 -56.453125 35.890625 -57.15625 32.578125 -57.15625 C 30.378906 -57.15625 28.546875 -56.867188 27.078125 -56.296875 C 25.617188 -55.722656 24.523438 -54.9375 23.796875 -53.9375 C 23.066406 -52.945312 22.6875 -51.8125 22.65625 -50.53125 C 22.613281 -49.476562 22.828125 -48.550781 23.296875 -47.75 C 23.765625 -46.957031 24.445312 -46.253906 25.34375 -45.640625 C 26.25 -45.035156 27.34375 -44.503906 28.625 -44.046875 C 29.90625 -43.597656 31.347656 -43.203125 32.953125 -42.859375 L 38.984375 -41.484375 C 42.453125 -40.734375 45.519531 -39.726562 48.1875 -38.46875 C 50.851562 -37.207031 53.09375 -35.707031 54.90625 -33.96875 C 56.726562 -32.238281 58.101562 -30.238281 59.03125 -27.96875 C 59.96875 -25.707031 60.453125 -23.171875 60.484375 -20.359375 C 60.453125 -15.929688 59.328125 -12.128906 57.109375 -8.953125 C 54.898438 -5.773438 51.71875 -3.335938 47.5625 -1.640625 C 43.414062 0.046875 38.421875 0.890625 32.578125 0.890625 C 26.703125 0.890625 21.578125 0.0078125 17.203125 -1.75 C 12.835938 -3.507812 9.441406 -6.179688 7.015625 -9.765625 C 4.597656 -13.359375 3.359375 -17.894531 3.296875 -23.375 L 19.546875 -23.375 C 19.679688 -21.113281 20.285156 -19.226562 21.359375 -17.71875 C 22.429688 -16.21875 23.910156 -15.078125 25.796875 -14.296875 C 27.679688 -13.515625 29.867188 -13.125 32.359375 -13.125 C 34.648438 -13.125 36.597656 -13.429688 38.203125 -14.046875 C 39.816406 -14.671875 41.054688 -15.53125 41.921875 -16.625 C 42.796875 -17.726562 43.242188 -18.988281 43.265625 -20.40625 C 43.242188 -21.726562 42.832031 -22.863281 42.03125 -23.8125 C 41.226562 -24.757812 40 -25.582031 38.34375 -26.28125 C 36.6875 -26.976562 34.578125 -27.625 32.015625 -28.21875 L 24.6875 -29.9375 C 18.601562 -31.320312 13.8125 -33.570312 10.3125 -36.6875 C 6.820312 -39.8125 5.085938 -44.039062 5.109375 -49.375 C 5.085938 -53.71875 6.253906 -57.519531 8.609375 -60.78125 C 10.960938 -64.050781 14.21875 -66.597656 18.375 -68.421875 C 22.53125 -70.253906 27.273438 -71.171875 32.609375 -71.171875 C 38.046875 -71.171875 42.769531 -70.25 46.78125 -68.40625 C 50.789062 -66.570312 53.90625 -64 56.125 -60.6875 C 58.34375 -57.375 59.472656 -53.535156 59.515625 -49.171875 Z M 43.265625 -49.171875 "/></g></g></g><g fill="#f8f1e5" fill-opacity="1"><g transform="translate(782.98067, 319.673927)"><g><path d="M 47.796875 -70.21875 L 64.734375 -70.21875 L 64.734375 -24.921875 C 64.734375 -19.691406 63.484375 -15.140625 60.984375 -11.265625 C 58.492188 -7.390625 55.019531 -4.394531 50.5625 -2.28125 C 46.113281 -0.164062 40.941406 0.890625 35.046875 0.890625 C 29.078125 0.890625 23.863281 -0.164062 19.40625 -2.28125 C 14.945312 -4.394531 11.484375 -7.390625 9.015625 -11.265625 C 6.546875 -15.140625 5.3125 -19.691406 5.3125 -24.921875 L 5.3125 -70.21875 L 22.28125 -70.21875 L 22.28125 -26.40625 C 22.28125 -23.976562 22.8125 -21.816406 23.875 -19.921875 C 24.9375 -18.023438 26.425781 -16.535156 28.34375 -15.453125 C 30.269531 -14.378906 32.503906 -13.84375 35.046875 -13.84375 C 37.578125 -13.84375 39.796875 -14.378906 41.703125 -15.453125 C 43.617188 -16.535156 45.113281 -18.023438 46.1875 -19.921875 C 47.257812 -21.816406 47.796875 -23.976562 47.796875 -26.40625 Z M 47.796875 -70.21875 "/></g></g></g><g fill="#f8f1e5" fill-opacity="1"><g transform="translate(853.02411, 319.673927)"><g><path d="M 69.046875 -44.78125 L 51.90625 -44.78125 C 51.675781 -46.539062 51.207031 -48.128906 50.5 -49.546875 C 49.789062 -50.960938 48.851562 -52.171875 47.6875 -53.171875 C 46.519531 -54.179688 45.140625 -54.953125 43.546875 -55.484375 C 41.960938 -56.023438 40.210938 -56.296875 38.296875 -56.296875 C 34.890625 -56.296875 31.957031 -55.460938 29.5 -53.796875 C 27.039062 -52.128906 25.15625 -49.71875 23.84375 -46.5625 C 22.53125 -43.40625 21.875 -39.585938 21.875 -35.109375 C 21.875 -30.441406 22.539062 -26.535156 23.875 -23.390625 C 25.21875 -20.253906 27.101562 -17.890625 29.53125 -16.296875 C 31.96875 -14.710938 34.851562 -13.921875 38.1875 -13.921875 C 40.0625 -13.921875 41.769531 -14.160156 43.3125 -14.640625 C 44.863281 -15.117188 46.226562 -15.820312 47.40625 -16.75 C 48.582031 -17.675781 49.550781 -18.804688 50.3125 -20.140625 C 51.082031 -21.472656 51.613281 -22.988281 51.90625 -24.6875 L 69.046875 -24.578125 C 68.753906 -21.472656 67.859375 -18.410156 66.359375 -15.390625 C 64.859375 -12.378906 62.804688 -9.628906 60.203125 -7.140625 C 57.597656 -4.660156 54.425781 -2.691406 50.6875 -1.234375 C 46.945312 0.222656 42.664062 0.953125 37.84375 0.953125 C 31.488281 0.953125 25.800781 -0.441406 20.78125 -3.234375 C 15.769531 -6.035156 11.8125 -10.117188 8.90625 -15.484375 C 6.007812 -20.859375 4.5625 -27.398438 4.5625 -35.109375 C 4.5625 -42.835938 6.035156 -49.382812 8.984375 -54.75 C 11.929688 -60.125 15.914062 -64.203125 20.9375 -66.984375 C 25.96875 -69.773438 31.601562 -71.171875 37.84375 -71.171875 C 42.101562 -71.171875 46.035156 -70.582031 49.640625 -69.40625 C 53.253906 -68.226562 56.429688 -66.515625 59.171875 -64.265625 C 61.921875 -62.015625 64.148438 -59.253906 65.859375 -55.984375 C 67.578125 -52.710938 68.640625 -48.976562 69.046875 -44.78125 Z M 69.046875 -44.78125 "/></g></g></g><g fill="#f8f1e5" fill-opacity="1"><g transform="translate(926.427441, 319.673927)"><g><path d="M 69.046875 -44.78125 L 51.90625 -44.78125 C 51.675781 -46.539062 51.207031 -48.128906 50.5 -49.546875 C 49.789062 -50.960938 48.851562 -52.171875 47.6875 -53.171875 C 46.519531 -54.179688 45.140625 -54.953125 43.546875 -55.484375 C 41.960938 -56.023438 40.210938 -56.296875 38.296875 -56.296875 C 34.890625 -56.296875 31.957031 -55.460938 29.5 -53.796875 C 27.039062 -52.128906 25.15625 -49.71875 23.84375 -46.5625 C 22.53125 -43.40625 21.875 -39.585938 21.875 -35.109375 C 21.875 -30.441406 22.539062 -26.535156 23.875 -23.390625 C 25.21875 -20.253906 27.101562 -17.890625 29.53125 -16.296875 C 31.96875 -14.710938 34.851562 -13.921875 38.1875 -13.921875 C 40.0625 -13.921875 41.769531 -14.160156 43.3125 -14.640625 C 44.863281 -15.117188 46.226562 -15.820312 47.40625 -16.75 C 48.582031 -17.675781 49.550781 -18.804688 50.3125 -20.140625 C 51.082031 -21.472656 51.613281 -22.988281 51.90625 -24.6875 L 69.046875 -24.578125 C 68.753906 -21.472656 67.859375 -18.410156 66.359375 -15.390625 C 64.859375 -12.378906 62.804688 -9.628906 60.203125 -7.140625 C 57.597656 -4.660156 54.425781 -2.691406 50.6875 -1.234375 C 46.945312 0.222656 42.664062 0.953125 37.84375 0.953125 C 31.488281 0.953125 25.800781 -0.441406 20.78125 -3.234375 C 15.769531 -6.035156 11.8125 -10.117188 8.90625 -15.484375 C 6.007812 -20.859375 4.5625 -27.398438 4.5625 -35.109375 C 4.5625 -42.835938 6.035156 -49.382812 8.984375 -54.75 C 11.929688 -60.125 15.914062 -64.203125 20.9375 -66.984375 C 25.96875 -69.773438 31.601562 -71.171875 37.84375 -71.171875 C 42.101562 -71.171875 46.035156 -70.582031 49.640625 -69.40625 C 53.253906 -68.226562 56.429688 -66.515625 59.171875 -64.265625 C 61.921875 -62.015625 64.148438 -59.253906 65.859375 -55.984375 C 67.578125 -52.710938 68.640625 -48.976562 69.046875 -44.78125 Z M 69.046875 -44.78125 "/></g></g></g><g fill="#f8f1e5" fill-opacity="1"><g transform="translate(999.830726, 319.673927)"><g><path d="M 5.3125 0 L 5.3125 -70.21875 L 54.265625 -70.21875 L 54.265625 -56.4375 L 22.28125 -56.4375 L 22.28125 -42.03125 L 51.765625 -42.03125 L 51.765625 -28.21875 L 22.28125 -28.21875 L 22.28125 -13.78125 L 54.265625 -13.78125 L 54.265625 0 Z M 5.3125 0 "/></g></g></g><g fill="#f8f1e5" fill-opacity="1"><g transform="translate(1059.417362, 319.673927)"><g><path d="M 43.265625 -49.171875 C 43.035156 -51.679688 42.023438 -53.640625 40.234375 -55.046875 C 38.441406 -56.453125 35.890625 -57.15625 32.578125 -57.15625 C 30.378906 -57.15625 28.546875 -56.867188 27.078125 -56.296875 C 25.617188 -55.722656 24.523438 -54.9375 23.796875 -53.9375 C 23.066406 -52.945312 22.6875 -51.8125 22.65625 -50.53125 C 22.613281 -49.476562 22.828125 -48.550781 23.296875 -47.75 C 23.765625 -46.957031 24.445312 -46.253906 25.34375 -45.640625 C 26.25 -45.035156 27.34375 -44.503906 28.625 -44.046875 C 29.90625 -43.597656 31.347656 -43.203125 32.953125 -42.859375 L 38.984375 -41.484375 C 42.453125 -40.734375 45.519531 -39.726562 48.1875 -38.46875 C 50.851562 -37.207031 53.09375 -35.707031 54.90625 -33.96875 C 56.726562 -32.238281 58.101562 -30.238281 59.03125 -27.96875 C 59.96875 -25.707031 60.453125 -23.171875 60.484375 -20.359375 C 60.453125 -15.929688 59.328125 -12.128906 57.109375 -8.953125 C 54.898438 -5.773438 51.71875 -3.335938 47.5625 -1.640625 C 43.414062 0.046875 38.421875 0.890625 32.578125 0.890625 C 26.703125 0.890625 21.578125 0.0078125 17.203125 -1.75 C 12.835938 -3.507812 9.441406 -6.179688 7.015625 -9.765625 C 4.597656 -13.359375 3.359375 -17.894531 3.296875 -23.375 L 19.546875 -23.375 C 19.679688 -21.113281 20.285156 -19.226562 21.359375 -17.71875 C 22.429688 -16.21875 23.910156 -15.078125 25.796875 -14.296875 C 27.679688 -13.515625 29.867188 -13.125 32.359375 -13.125 C 34.648438 -13.125 36.597656 -13.429688 38.203125 -14.046875 C 39.816406 -14.671875 41.054688 -15.53125 41.921875 -16.625 C 42.796875 -17.726562 43.242188 -18.988281 43.265625 -20.40625 C 43.242188 -21.726562 42.832031 -22.863281 42.03125 -23.8125 C 41.226562 -24.757812 40 -25.582031 38.34375 -26.28125 C 36.6875 -26.976562 34.578125 -27.625 32.015625 -28.21875 L 24.6875 -29.9375 C 18.601562 -31.320312 13.8125 -33.570312 10.3125 -36.6875 C 6.820312 -39.8125 5.085938 -44.039062 5.109375 -49.375 C 5.085938 -53.71875 6.253906 -57.519531 8.609375 -60.78125 C 10.960938 -64.050781 14.21875 -66.597656 18.375 -68.421875 C 22.53125 -70.253906 27.273438 -71.171875 32.609375 -71.171875 C 38.046875 -71.171875 42.769531 -70.25 46.78125 -68.40625 C 50.789062 -66.570312 53.90625 -64 56.125 -60.6875 C 58.34375 -57.375 59.472656 -53.535156 59.515625 -49.171875 Z M 43.265625 -49.171875 "/></g></g></g><g fill="#f8f1e5" fill-opacity="1"><g transform="translate(1123.18672, 319.673927)"><g><path d="M 43.265625 -49.171875 C 43.035156 -51.679688 42.023438 -53.640625 40.234375 -55.046875 C 38.441406 -56.453125 35.890625 -57.15625 32.578125 -57.15625 C 30.378906 -57.15625 28.546875 -56.867188 27.078125 -56.296875 C 25.617188 -55.722656 24.523438 -54.9375 23.796875 -53.9375 C 23.066406 -52.945312 22.6875 -51.8125 22.65625 -50.53125 C 22.613281 -49.476562 22.828125 -48.550781 23.296875 -47.75 C 23.765625 -46.957031 24.445312 -46.253906 25.34375 -45.640625 C 26.25 -45.035156 27.34375 -44.503906 28.625 -44.046875 C 29.90625 -43.597656 31.347656 -43.203125 32.953125 -42.859375 L 38.984375 -41.484375 C 42.453125 -40.734375 45.519531 -39.726562 48.1875 -38.46875 C 50.851562 -37.207031 53.09375 -35.707031 54.90625 -33.96875 C 56.726562 -32.238281 58.101562 -30.238281 59.03125 -27.96875 C 59.96875 -25.707031 60.453125 -23.171875 60.484375 -20.359375 C 60.453125 -15.929688 59.328125 -12.128906 57.109375 -8.953125 C 54.898438 -5.773438 51.71875 -3.335938 47.5625 -1.640625 C 43.414062 0.046875 38.421875 0.890625 32.578125 0.890625 C 26.703125 0.890625 21.578125 0.0078125 17.203125 -1.75 C 12.835938 -3.507812 9.441406 -6.179688 7.015625 -9.765625 C 4.597656 -13.359375 3.359375 -17.894531 3.296875 -23.375 L 19.546875 -23.375 C 19.679688 -21.113281 20.285156 -19.226562 21.359375 -17.71875 C 22.429688 -16.21875 23.910156 -15.078125 25.796875 -14.296875 C 27.679688 -13.515625 29.867188 -13.125 32.359375 -13.125 C 34.648438 -13.125 36.597656 -13.429688 38.203125 -14.046875 C 39.816406 -14.671875 41.054688 -15.53125 41.921875 -16.625 C 42.796875 -17.726562 43.242188 -18.988281 43.265625 -20.40625 C 43.242188 -21.726562 42.832031 -22.863281 42.03125 -23.8125 C 41.226562 -24.757812 40 -25.582031 38.34375 -26.28125 C 36.6875 -26.976562 34.578125 -27.625 32.015625 -28.21875 L 24.6875 -29.9375 C 18.601562 -31.320312 13.8125 -33.570312 10.3125 -36.6875 C 6.820312 -39.8125 5.085938 -44.039062 5.109375 -49.375 C 5.085938 -53.71875 6.253906 -57.519531 8.609375 -60.78125 C 10.960938 -64.050781 14.21875 -66.597656 18.375 -68.421875 C 22.53125 -70.253906 27.273438 -71.171875 32.609375 -71.171875 C 38.046875 -71.171875 42.769531 -70.25 46.78125 -68.40625 C 50.789062 -66.570312 53.90625 -64 56.125 -60.6875 C 58.34375 -57.375 59.472656 -53.535156 59.515625 -49.171875 Z M 43.265625 -49.171875 "/></g></g></g><g fill="#f8f1e5" fill-opacity="1"><g transform="translate(1186.956078, 319.673927)"><g><path d="M 25.03125 -70.21875 L 23.453125 -21.5 L 9.359375 -21.5 L 7.78125 -70.21875 Z M 16.390625 1 C 13.941406 1 11.84375 0.128906 10.09375 -1.609375 C 8.34375 -3.347656 7.46875 -5.453125 7.46875 -7.921875 C 7.46875 -10.335938 8.34375 -12.410156 10.09375 -14.140625 C 11.84375 -15.867188 13.941406 -16.734375 16.390625 -16.734375 C 18.742188 -16.734375 20.816406 -15.867188 22.609375 -14.140625 C 24.398438 -12.410156 25.296875 -10.335938 25.296875 -7.921875 C 25.296875 -6.273438 24.878906 -4.773438 24.046875 -3.421875 C 23.210938 -2.078125 22.125 -1.003906 20.78125 -0.203125 C 19.445312 0.597656 17.984375 1 16.390625 1 Z M 16.390625 1 "/></g></g></g></svg>