<svg width="216" height="217" viewBox="0 0 216 217" fill="none" xmlns="http://www.w3.org/2000/svg">
<g clip-path="url(#clip0_355_25184)">
<path d="M68.9251 83.2307C71.2622 82.2678 73.8051 82.4295 76.5537 83.7158C79.2669 84.9236 81.4575 87.3701 83.1258 91.0551C84.6519 94.4263 86.0081 98.3794 87.1943 102.914C88.3805 107.449 89.5804 112.396 90.7939 117.757C91.972 123.039 93.3838 128.551 95.0295 134.292C96.6751 140.032 98.7015 145.849 101.109 151.741L99.137 152.553C96.3643 146.812 93.3155 141.417 89.99 136.368C86.7377 131.289 83.5 126.53 80.2769 122.09C77.0914 117.542 74.1388 113.316 71.4188 109.413C68.7719 105.48 66.6853 101.828 65.1591 98.4568C63.491 94.7719 63.0531 91.6033 63.8456 88.9511C64.6758 86.1906 66.3687 84.2837 68.9251 83.2307ZM103.104 158.733C105.953 157.56 108.589 157.45 111.014 158.405C113.404 159.281 115.238 161.13 116.515 163.953C117.793 166.775 117.965 169.356 117.031 171.694C116.061 173.954 114.151 175.671 111.303 176.844C108.455 178.018 105.836 178.167 103.446 177.291C101.021 176.336 99.1695 174.448 97.8917 171.625C96.614 168.803 96.4601 166.261 97.43 164.001C98.3644 161.663 100.256 159.907 103.104 158.733Z" fill="#705F45"/>
<path d="M107.482 46.1352C110.027 45.3476 112.693 45.7471 115.48 47.3333C118.237 48.835 120.337 51.5756 121.782 55.5553C123.103 59.1963 124.196 63.426 125.061 68.2446C125.925 73.063 126.769 78.3118 127.591 83.9907C128.384 89.5851 129.402 95.4388 130.648 101.552C131.894 107.665 133.535 113.892 135.571 120.231L133.423 120.896C130.99 114.679 128.236 108.797 125.161 103.25C122.165 97.6783 119.158 92.4397 116.139 87.5345C113.169 82.5199 110.417 77.8618 107.882 73.5601C105.427 69.2338 103.539 65.2501 102.217 61.6092C100.773 57.6295 100.581 54.2983 101.642 51.6153C102.752 48.8232 104.698 46.9965 107.482 46.1352ZM137.079 127.676C140.18 126.717 142.969 126.843 145.443 128.055C147.887 129.182 149.662 131.27 150.769 134.318C151.875 137.367 151.836 140.063 150.653 142.407C149.438 144.667 147.28 146.276 144.178 147.236C141.077 148.196 138.304 148.112 135.86 146.984C133.385 145.772 131.595 143.642 130.488 140.594C129.382 137.546 129.436 134.892 130.65 132.632C131.834 130.288 133.977 128.636 137.079 127.676Z" fill="#705F45"/>
</g>
<defs>
<clipPath id="clip0_355_25184">
<rect width="152" height="157" fill="white" transform="translate(0.979492 86.4805) rotate(-34.301)"/>
</clipPath>
</defs>
</svg>
