<?xml version="1.0" encoding="UTF-8"?>
<!DOCTYPE svg PUBLIC "-//W3C//DTD SVG 1.1//EN" "http://www.w3.org/Graphics/SVG/1.1/DTD/svg11.dtd">
<!-- Creator: CorelDRAW -->
<svg xmlns="http://www.w3.org/2000/svg" xml:space="preserve" width="22.2264mm" height="25.6866mm" version="1.1" style="shape-rendering:geometricPrecision; text-rendering:geometricPrecision; image-rendering:optimizeQuality; fill-rule:evenodd; clip-rule:evenodd"
viewBox="0 0 2608.83 3014.97"
 xmlns:xlink="http://www.w3.org/1999/xlink"
 xmlns:xodm="http://www.corel.com/coreldraw/odm/2003">
 <defs>
  <style type="text/css">
   <![CDATA[
    .fil2 {fill:none;fill-rule:nonzero}
    .fil0 {fill:white;fill-rule:nonzero;fill-opacity:0.000000}
    .fil1 {fill:#3E3327;fill-rule:nonzero}
   ]]>
  </style>
    <clipPath id="id0" style="clip-rule:nonzero">
     <path d="M803.49 0l1805.34 799.5 -803.49 1814.35 -1805.34 -799.5 803.49 -1814.35z"/>
    </clipPath>
    <clipPath id="id1" style="clip-rule:nonzero">
     <path d="M803.49 0l1805.34 799.5 -803.49 1814.35 -1805.34 -799.5 803.49 -1814.35z"/>
    </clipPath>
    <clipPath id="id2" style="clip-rule:nonzero">
     <path d="M1752.8 1996.66l703.32 311.47 -313.03 706.85 -703.32 -311.48 313.03 -706.83z"/>
    </clipPath>
    <clipPath id="id3" style="clip-rule:nonzero">
     <path d="M1752.8 1996.66l703.32 311.47 -313.03 706.85 -703.32 -311.48 313.03 -706.83z"/>
    </clipPath>
 </defs>
 <g id="Layer_x0020_1">
  <metadata id="CorelCorpID_0Corel-Layer"/>
  <g id="_2248857197520">
   <g style="clip-path:url(#id0)">
    <polygon class="fil0" points="-0,0 2608.83,0 2608.83,2613.85 -0,2613.85 "/>
   </g>
   <g style="clip-path:url(#id1)">
    <g>
     <path id="_1" class="fil1" d="M1012.82 786.24c297.03,-129.95 460.4,-367.63 511.81,-448.65 -25.56,92.47 -91.76,373.19 11.64,680.47 94.16,279.89 275.26,421.99 346.75,471.9 -84.94,-19.53 -311.95,-58 -582.42,60.26 -297.03,129.95 -460.4,367.63 -511.7,448.7 25.56,-92.47 91.63,-373.24 -11.76,-680.52 -94.22,-279.74 -275.27,-422 -346.82,-471.77 85,19.4 311.96,58 582.49,-60.39z"/>
     <path class="fil1" d="M1012.83 786.24c297.03,-129.95 460.4,-367.63 511.8,-448.65 -25.55,92.47 -91.75,373.19 11.64,680.47 94.17,279.89 275.27,421.99 346.76,471.9 -84.94,-19.53 -311.95,-58 -582.42,60.26 -297.03,129.95 -460.42,367.63 -511.7,448.7 25.56,-92.47 91.63,-373.24 -11.76,-680.52 -94.23,-279.74 -275.27,-422 -346.82,-471.77 85,19.4 311.95,58 582.49,-60.39z"/>
    </g>
   </g>
   <polygon class="fil2" points="803.49,0 2608.83,799.5 1805.34,2613.85 -0,1814.35 "/>
   <g style="clip-path:url(#id2)">
    <polygon class="fil0" points="1439.77,1996.66 2456.12,1996.66 2456.12,3014.97 1439.77,3014.97 "/>
   </g>
   <g style="clip-path:url(#id3)">
    <g>
     <path id="_1_0" class="fil1" d="M1834.34 2302.96c115.72,-50.62 179.37,-143.22 199.4,-174.78 -9.95,36.02 -35.74,145.39 4.54,265.1 36.68,109.03 107.23,164.4 135.09,183.83 -33.1,-7.61 -121.53,-22.59 -226.9,23.48 -115.72,50.62 -179.37,143.22 -199.35,174.81 9.97,-36.02 35.69,-145.4 -4.59,-265.12 -36.7,-108.98 -107.23,-164.41 -135.11,-183.8 33.12,7.56 121.54,22.59 226.92,-23.52z"/>
     <path class="fil1" d="M1834.35 2302.96c115.72,-50.62 179.36,-143.22 199.39,-174.78 -9.95,36.02 -35.74,145.39 4.54,265.1 36.68,109.03 107.23,164.4 135.09,183.83 -33.09,-7.61 -121.53,-22.59 -226.9,23.48 -115.71,50.62 -179.37,143.22 -199.35,174.81 9.97,-36.02 35.71,-145.4 -4.58,-265.12 -36.71,-108.98 -107.23,-164.41 -135.11,-183.8 33.11,7.56 121.53,22.59 226.92,-23.52z"/>
    </g>
   </g>
   <polygon class="fil2" points="1752.8,1996.66 2456.12,2308.12 2143.09,3014.97 1439.77,2703.49 "/>
  </g>
 </g>
</svg>
