<?xml version="1.0" encoding="UTF-8"?>
<!DOCTYPE svg PUBLIC "-//W3C//DTD SVG 1.1//EN" "http://www.w3.org/Graphics/SVG/1.1/DTD/svg11.dtd">
<!-- Creator: CorelDRAW -->
<svg xmlns="http://www.w3.org/2000/svg" xml:space="preserve" width="22.2264mm" height="22.2692mm" version="1.1" style="shape-rendering:geometricPrecision; text-rendering:geometricPrecision; image-rendering:optimizeQuality; fill-rule:evenodd; clip-rule:evenodd"
viewBox="0 0 300.93 301.51"
 xmlns:xlink="http://www.w3.org/1999/xlink"
 xmlns:xodm="http://www.corel.com/coreldraw/odm/2003">
 <defs>
  <style type="text/css">
   <![CDATA[
    .fil2 {fill:none;fill-rule:nonzero}
    .fil0 {fill:white;fill-rule:nonzero;fill-opacity:0.000000}
    .fil1 {fill:#3E3327;fill-rule:nonzero}
   ]]>
  </style>
   <clipPath id="id0" style="clip-rule:nonzero">
    <path d="M92.68 0l208.25 92.22 -92.68 209.29 -208.25 -92.22 92.68 -209.29z"/>
   </clipPath>
   <clipPath id="id1" style="clip-rule:nonzero">
    <path d="M92.68 0l208.25 92.22 -92.68 209.29 -208.25 -92.22 92.68 -209.29z"/>
   </clipPath>
 </defs>
 <g id="Layer_x0020_1">
  <metadata id="CorelCorpID_0Corel-Layer"/>
  <g style="clip-path:url(#id0)">
   <polygon class="fil0" points="-0,0 300.93,0 300.93,301.51 -0,301.51 "/>
  </g>
  <g style="clip-path:url(#id1)">
   <g id="_2248958005760">
    <path id="_1" class="fil1" d="M116.83 90.69c34.26,-14.99 53.11,-42.41 59.04,-51.75 -2.95,10.67 -10.59,43.05 1.34,78.49 10.86,32.29 31.75,48.68 40,54.43 -9.8,-2.25 -35.98,-6.69 -67.18,6.95 -34.26,14.99 -53.11,42.41 -59.03,51.76 2.95,-10.67 10.57,-43.05 -1.36,-78.5 -10.87,-32.27 -31.75,-48.68 -40.01,-54.42 9.81,2.24 35.99,6.69 67.19,-6.97z"/>
    <path class="fil1" d="M116.83 90.69c34.26,-14.99 53.11,-42.41 59.04,-51.75 -2.95,10.67 -10.58,43.05 1.34,78.49 10.86,32.29 31.75,48.68 40,54.43 -9.8,-2.25 -35.98,-6.69 -67.18,6.95 -34.26,14.99 -53.11,42.41 -59.03,51.76 2.95,-10.67 10.57,-43.05 -1.36,-78.5 -10.87,-32.27 -31.75,-48.68 -40.01,-54.42 9.81,2.24 35.98,6.69 67.19,-6.97z"/>
   </g>
  </g>
  <polygon class="fil2" points="92.68,0 300.93,92.22 208.25,301.51 -0,209.29 "/>
 </g>
</svg>
