<svg width="450" height="184" viewBox="0 0 450 184" fill="none" xmlns="http://www.w3.org/2000/svg">
<g filter="url(#filter0_dd_362_26160)">
<rect x="64.4219" y="45" width="294" height="100" rx="15" fill="#7B664E" shape-rendering="crispEdges"/>
<path d="M118.422 70.625C113.601 70.625 108.888 72.0546 104.88 74.7329C100.871 77.4113 97.7472 81.2181 95.9023 85.6721C94.0574 90.126 93.5747 95.027 94.5152 99.7553C95.4558 104.484 97.7773 108.827 101.186 112.236C104.595 115.645 108.938 117.966 113.667 118.907C118.395 119.847 123.296 119.364 127.75 117.52C132.204 115.675 136.011 112.55 138.689 108.542C141.367 104.534 142.797 99.8209 142.797 95C142.79 88.5374 140.22 82.3415 135.65 77.7718C131.08 73.2021 124.884 70.6318 118.422 70.625ZM131.547 96.875H118.422C117.925 96.875 117.448 96.6775 117.096 96.3258C116.744 95.9742 116.547 95.4973 116.547 95V81.875C116.547 81.3777 116.744 80.9008 117.096 80.5492C117.448 80.1975 117.925 80 118.422 80C118.919 80 119.396 80.1975 119.748 80.5492C120.099 80.9008 120.297 81.3777 120.297 81.875V93.125H131.547C132.044 93.125 132.521 93.3225 132.873 93.6742C133.224 94.0258 133.422 94.5027 133.422 95C133.422 95.4973 133.224 95.9742 132.873 96.3258C132.521 96.6775 132.044 96.875 131.547 96.875Z" fill="#F8F1E5"/>
<path d="M173.763 118.886C170.02 118.886 166.808 117.939 164.126 116.045C161.46 114.136 159.407 111.386 157.967 107.795C156.543 104.189 155.831 99.8485 155.831 94.7727C155.846 89.697 156.566 85.3788 157.99 81.8182C159.429 78.2424 161.482 75.5152 164.149 73.6364C166.831 71.7576 170.036 70.8182 173.763 70.8182C177.49 70.8182 180.695 71.7576 183.376 73.6364C186.058 75.5152 188.111 78.2424 189.536 81.8182C190.975 85.3939 191.695 89.7121 191.695 94.7727C191.695 99.8636 190.975 104.212 189.536 107.818C188.111 111.409 186.058 114.152 183.376 116.045C180.71 117.939 177.505 118.886 173.763 118.886ZM173.763 111.773C176.672 111.773 178.967 110.341 180.649 107.477C182.346 104.598 183.195 100.364 183.195 94.7727C183.195 91.0758 182.808 87.9697 182.036 85.4545C181.263 82.9394 180.172 81.0455 178.763 79.7727C177.354 78.4848 175.687 77.8409 173.763 77.8409C170.869 77.8409 168.581 79.2803 166.899 82.1591C165.217 85.0227 164.369 89.2273 164.354 94.7727C164.339 98.4848 164.71 101.606 165.467 104.136C166.24 106.667 167.331 108.576 168.74 109.864C170.149 111.136 171.823 111.773 173.763 111.773ZM199.8 118L219.596 78.8182V78.5H196.618V71.4545H228.323V78.6591L208.55 118H199.8ZM238.73 112.409C237.351 112.409 236.169 111.924 235.184 110.955C234.2 109.97 233.715 108.788 233.73 107.409C233.715 106.045 234.2 104.879 235.184 103.909C236.169 102.939 237.351 102.455 238.73 102.455C240.063 102.455 241.222 102.939 242.207 103.909C243.207 104.879 243.715 106.045 243.73 107.409C243.715 108.333 243.472 109.174 243.003 109.932C242.548 110.689 241.942 111.295 241.184 111.75C240.442 112.189 239.624 112.409 238.73 112.409ZM238.73 89.3409C237.351 89.3409 236.169 88.8561 235.184 87.8864C234.2 86.9015 233.715 85.7197 233.73 84.3409C233.715 82.9773 234.2 81.8106 235.184 80.8409C236.169 79.8561 237.351 79.3636 238.73 79.3636C240.063 79.3636 241.222 79.8561 242.207 80.8409C243.207 81.8106 243.715 82.9773 243.73 84.3409C243.715 85.25 243.472 86.0833 243.003 86.8409C242.548 87.5985 241.942 88.2045 241.184 88.6591C240.442 89.1136 239.624 89.3409 238.73 89.3409ZM269.438 118.886C265.695 118.886 262.483 117.939 259.801 116.045C257.135 114.136 255.082 111.386 253.642 107.795C252.218 104.189 251.506 99.8485 251.506 94.7727C251.521 89.697 252.241 85.3788 253.665 81.8182C255.104 78.2424 257.157 75.5152 259.824 73.6364C262.506 71.7576 265.711 70.8182 269.438 70.8182C273.165 70.8182 276.37 71.7576 279.051 73.6364C281.733 75.5152 283.786 78.2424 285.211 81.8182C286.65 85.3939 287.37 89.7121 287.37 94.7727C287.37 99.8636 286.65 104.212 285.211 107.818C283.786 111.409 281.733 114.152 279.051 116.045C276.385 117.939 273.18 118.886 269.438 118.886ZM269.438 111.773C272.347 111.773 274.642 110.341 276.324 107.477C278.021 104.598 278.87 100.364 278.87 94.7727C278.87 91.0758 278.483 87.9697 277.711 85.4545C276.938 82.9394 275.847 81.0455 274.438 79.7727C273.029 78.4848 271.362 77.8409 269.438 77.8409C266.544 77.8409 264.256 79.2803 262.574 82.1591C260.892 85.0227 260.044 89.2273 260.029 94.7727C260.014 98.4848 260.385 101.606 261.142 104.136C261.915 106.667 263.006 108.576 264.415 109.864C265.824 111.136 267.498 111.773 269.438 111.773ZM312.225 118.886C308.483 118.886 305.271 117.939 302.589 116.045C299.922 114.136 297.869 111.386 296.43 107.795C295.006 104.189 294.293 99.8485 294.293 94.7727C294.309 89.697 295.028 85.3788 296.453 81.8182C297.892 78.2424 299.945 75.5152 302.612 73.6364C305.293 71.7576 308.498 70.8182 312.225 70.8182C315.953 70.8182 319.157 71.7576 321.839 73.6364C324.521 75.5152 326.574 78.2424 327.998 81.8182C329.437 85.3939 330.157 89.7121 330.157 94.7727C330.157 99.8636 329.437 104.212 327.998 107.818C326.574 111.409 324.521 114.152 321.839 116.045C319.172 117.939 315.968 118.886 312.225 118.886ZM312.225 111.773C315.134 111.773 317.43 110.341 319.112 107.477C320.809 104.598 321.657 100.364 321.657 94.7727C321.657 91.0758 321.271 87.9697 320.498 85.4545C319.725 82.9394 318.634 81.0455 317.225 79.7727C315.816 78.4848 314.15 77.8409 312.225 77.8409C309.331 77.8409 307.043 79.2803 305.362 82.1591C303.68 85.0227 302.831 89.2273 302.816 94.7727C302.801 98.4848 303.172 101.606 303.93 104.136C304.703 106.667 305.793 108.576 307.203 109.864C308.612 111.136 310.286 111.773 312.225 111.773Z" fill="#F8F1E5"/>
</g>
<path d="M386.276 109.499C387.952 109.821 389.314 110.789 390.361 112.402C391.419 113.963 391.711 115.975 391.237 118.436C390.804 120.688 390.054 123.178 388.986 125.906C387.919 128.633 386.701 131.576 385.333 134.735C383.975 137.841 382.661 141.145 381.39 144.648C380.119 148.151 379.032 151.826 378.13 155.671L376.715 155.399C377.356 151.503 377.71 147.688 377.776 143.953C377.895 140.229 377.9 136.672 377.791 133.284C377.745 129.854 377.706 126.669 377.673 123.73C377.694 120.801 377.92 118.211 378.353 115.959C378.827 113.497 379.792 111.727 381.248 110.65C382.767 109.53 384.443 109.146 386.276 109.499ZM376.576 159.934C378.619 160.327 380.137 161.189 381.13 162.521C382.133 163.8 382.453 165.382 382.091 167.268C381.728 169.153 380.839 170.53 379.423 171.398C378.017 172.214 376.292 172.425 374.25 172.033C372.207 171.64 370.684 170.804 369.681 169.525C368.688 168.193 368.373 166.585 368.735 164.699C369.098 162.814 369.982 161.463 371.388 160.647C372.805 159.779 374.534 159.542 376.576 159.934Z" fill="#705F45"/>
<path d="M422.025 103.989C423.751 104.474 425.091 105.606 426.045 107.386C427.015 109.112 427.144 111.242 426.433 113.776C425.782 116.095 424.779 118.634 423.423 121.394C422.067 124.155 420.534 127.127 418.826 130.312C417.133 133.443 415.468 136.786 413.831 140.34C412.194 143.893 410.735 147.643 409.454 151.587L407.998 151.179C409.01 147.158 409.714 143.197 410.111 139.296C410.562 135.409 410.879 131.688 411.062 128.133C411.315 124.54 411.553 121.204 411.777 118.126C412.055 115.063 412.519 112.373 413.169 110.054C413.88 107.52 415.045 105.753 416.664 104.753C418.351 103.714 420.138 103.46 422.025 103.989ZM407.455 155.912C409.558 156.502 411.07 157.537 411.993 159.017C412.93 160.444 413.126 162.127 412.582 164.068C412.037 166.009 410.986 167.372 409.428 168.156C407.885 168.887 406.063 168.957 403.96 168.367C401.857 167.777 400.337 166.768 399.399 165.342C398.477 163.862 398.288 162.151 398.833 160.21C399.378 158.269 400.421 156.933 401.964 156.203C403.522 155.419 405.352 155.322 407.455 155.912Z" fill="#705F45"/>
<mask id="mask0_362_26160" style="mask-type:luminance" maskUnits="userSpaceOnUse" x="0" y="0" width="58" height="58">
<path d="M0.421875 12.248L44.9146 0.000377981L57.3653 45.2309L12.8726 57.4786L0.421875 12.248Z" fill="white"/>
</mask>
<g mask="url(#mask0_362_26160)">
<path d="M15.8885 23.5407C19.3226 16.7325 18.7415 9.94111 18.466 7.69007C19.3784 9.76577 22.3548 15.8978 28.7893 19.9894C34.6498 23.7167 40.0332 23.6228 42.0664 23.4723C40.2416 24.3801 35.5696 27.0579 32.4412 33.2559C29.0071 40.064 29.5882 46.8554 29.8666 49.1057C28.9542 47.03 25.9749 40.8987 19.5404 36.8071C13.6808 33.0833 8.29652 33.1737 6.26426 33.3277C8.08808 32.4165 12.7611 29.7421 15.8885 23.5407Z" fill="#705F45"/>
<path d="M15.8885 23.5407C19.3226 16.7325 18.7415 9.94111 18.466 7.69007C19.3784 9.76577 22.3548 15.8978 28.7893 19.9894C34.6498 23.7167 40.0332 23.6228 42.0664 23.4723C40.2416 24.3801 35.5696 27.0579 32.4412 33.2559C29.0071 40.064 29.5882 46.8554 29.8666 49.1057C28.9542 47.03 25.9749 40.8987 19.5404 36.8071C13.6808 33.0833 8.29652 33.1737 6.26426 33.3277C8.08808 32.4165 12.7611 29.7421 15.8885 23.5407Z" fill="#705F45"/>
</g>
<mask id="mask1_362_26160" style="mask-type:luminance" maskUnits="userSpaceOnUse" x="44" y="8" width="38" height="38">
<path d="M44.4219 15.8984L73.1137 8.00034L81.2563 37.5803L52.5645 45.4784L44.4219 15.8984Z" fill="white"/>
</mask>
<g mask="url(#mask1_362_26160)">
<path d="M54.4316 23.3125C56.6324 18.8725 56.2415 14.434 56.0584 12.9627C56.6522 14.3209 58.5878 18.3342 62.7508 21.0224C66.5426 23.4712 70.0174 23.4225 71.3295 23.3289C70.1537 23.9177 67.1441 25.6564 65.1391 29.6984C62.9383 34.1385 63.3293 38.5769 63.5142 40.0478C62.9204 38.6895 60.9829 34.6767 56.8199 31.9885C53.0288 29.5419 49.5534 29.5884 48.2419 29.6843C49.417 29.0932 52.4273 27.3568 54.4316 23.3125Z" fill="#705F45"/>
<path d="M54.4316 23.3125C56.6324 18.8725 56.2415 14.434 56.0584 12.9627C56.6522 14.3209 58.5878 18.3342 62.7508 21.0224C66.5426 23.4712 70.0174 23.4225 71.3295 23.3289C70.1537 23.9177 67.1441 25.6564 65.1391 29.6984C62.9383 34.1385 63.3293 38.5769 63.5142 40.0478C62.9204 38.6895 60.9829 34.6767 56.8199 31.9885C53.0288 29.5419 49.5534 29.5884 48.2419 29.6843C49.417 29.0932 52.4273 27.3568 54.4316 23.3125Z" fill="#705F45"/>
</g>
<defs>
<filter id="filter0_dd_362_26160" x="37.4219" y="22" width="348" height="154" filterUnits="userSpaceOnUse" color-interpolation-filters="sRGB">
<feFlood flood-opacity="0" result="BackgroundImageFix"/>
<feColorMatrix in="SourceAlpha" type="matrix" values="0 0 0 0 0 0 0 0 0 0 0 0 0 0 0 0 0 0 127 0" result="hardAlpha"/>
<feOffset/>
<feGaussianBlur stdDeviation="2"/>
<feComposite in2="hardAlpha" operator="out"/>
<feColorMatrix type="matrix" values="0 0 0 0 0.376471 0 0 0 0 0.376471 0 0 0 0 0.376471 0 0 0 0.04 0"/>
<feBlend mode="normal" in2="BackgroundImageFix" result="effect1_dropShadow_362_26160"/>
<feColorMatrix in="SourceAlpha" type="matrix" values="0 0 0 0 0 0 0 0 0 0 0 0 0 0 0 0 0 0 127 0" result="hardAlpha"/>
<feMorphology radius="15" operator="dilate" in="SourceAlpha" result="effect2_dropShadow_362_26160"/>
<feOffset dy="4"/>
<feGaussianBlur stdDeviation="6"/>
<feComposite in2="hardAlpha" operator="out"/>
<feColorMatrix type="matrix" values="0 0 0 0 0.388235 0 0 0 0 0.388235 0 0 0 0 0.388235 0 0 0 0.2 0"/>
<feBlend mode="normal" in2="effect1_dropShadow_362_26160" result="effect2_dropShadow_362_26160"/>
<feBlend mode="normal" in="SourceGraphic" in2="effect2_dropShadow_362_26160" result="shape"/>
</filter>
</defs>
</svg>
